<?xml version="1.0" standalone="no"?>
<!DOCTYPE svg PUBLIC "-//W3C//DTD SVG 20010904//EN"
 "http://www.w3.org/TR/2001/REC-SVG-20010904/DTD/svg10.dtd">
<svg version="1.0" xmlns="http://www.w3.org/2000/svg"
 width="416.000000pt" height="416.000000pt" viewBox="0 0 416.000000 416.000000"
 preserveAspectRatio="xMidYMid meet">
<metadata>
Created by potrace 1.11, written by Peter Selinger 2001-2013
</metadata>
<g transform="translate(0.000000,416.000000) scale(0.100000,-0.100000)"
fill="#000000" stroke="none">
<path d="M1903 4009 c-350 -22 -695 -144 -983 -346 -136 -96 -357 -320 -448
-454 -134 -199 -216 -386 -277 -629 -48 -192 -60 -289 -59 -500 1 -263 37
-469 124 -705 53 -145 174 -363 276 -495 47 -61 242 -255 319 -317 123 -99
325 -213 488 -273 92 -34 101 -33 112 10 5 23 1 27 -67 52 -269 101 -542 352
-713 655 -245 437 -338 986 -244 1447 169 831 909 1375 1774 1306 405 -32 743
-179 1023 -445 356 -337 544 -845 504 -1364 -53 -676 -373 -1261 -837 -1526
-44 -25 -113 -58 -152 -73 -40 -15 -73 -30 -73 -34 0 -20 21 -58 33 -58 24 0
208 79 305 131 354 189 628 474 802 834 80 166 115 278 172 555 18 90 18 518
-1 620 -40 217 -87 370 -168 540 -106 225 -205 361 -394 545 -273 266 -616
438 -1004 504 -57 10 -343 32 -375 29 -8 0 -70 -4 -137 -9z"/>
<path d="M1969 2180 c-292 -46 -498 -287 -499 -581 0 -152 35 -235 229 -539
173 -270 264 -472 313 -695 l13 -60 41 -3 41 -3 23 98 c48 208 128 388 272
612 209 325 258 437 258 589 0 106 -19 182 -67 275 -116 220 -373 346 -624
307z m206 -382 c44 -24 102 -87 121 -133 10 -24 16 -67 16 -111 0 -117 -49
-201 -144 -248 -168 -84 -348 40 -348 239 0 39 5 87 11 109 12 43 77 119 123
144 62 32 160 32 221 0z"/>
</g>
</svg>
