<?xml version="1.0" encoding="utf-8"?>
<!-- Generator: Adobe Illustrator 19.1.0, SVG Export Plug-In . SVG Version: 6.00 Build 0)  -->
<svg version="1.1" id="Layer_1" xmlns="http://www.w3.org/2000/svg" xmlns:xlink="http://www.w3.org/1999/xlink" x="0px" y="0px"
	 viewBox="-361 273 68 68" style="enable-background:new -361 273 68 68;" xml:space="preserve">
<style type="text/css">
	.st0{fill:#FFFFFF;}
	.st1{fill:none;stroke:#FFFFFF;stroke-width:2.0738;stroke-linecap:round;stroke-miterlimit:10;}
</style>
<g>
	<g>
		<path class="st0" d="M-295.5,279.4v48.2h-62.9v-48.2H-295.5 M-293.5,277.3h-67.1v52.4h67.1V277.3L-293.5,277.3z"/>
	</g>
	<path class="st1" d="M-332.5,294.7c0,4.3-4.8,7.7-4.8,7.7s-4.8-3.5-4.8-7.7c0-4.3,2.2-7.7,4.8-7.7S-332.5,290.5-332.5,294.7z"/>
	<path class="st1" d="M-329.6,307.3c-4.3,0-7.7-4.8-7.7-4.8s3.5-4.8,7.7-4.8s7.7,2.2,7.7,4.8C-321.9,305.1-325.4,307.3-329.6,307.3z
		"/>
	<path class="st1" d="M-342.2,310.2c0-4.3,4.8-7.7,4.8-7.7s4.8,3.5,4.8,7.7c0,4.3-2.2,7.7-4.8,7.7S-342.2,314.4-342.2,310.2z"/>
	<path class="st1" d="M-345.1,297.6c4.3,0,7.7,4.8,7.7,4.8s-3.5,4.8-7.7,4.8s-7.7-2.2-7.7-4.8C-352.8,299.8-349.4,297.6-345.1,297.6
		z"/>
	<line class="st1" x1="-311" y1="288.1" x2="-302.1" y2="288.1"/>
	<line class="st1" x1="-311" y1="298.7" x2="-302.1" y2="298.7"/>
	<line class="st1" x1="-311" y1="309.3" x2="-302.1" y2="309.3"/>
	<line class="st1" x1="-311" y1="319.9" x2="-302.1" y2="319.9"/>
	<line class="st1" x1="-311" y1="336.7" x2="-302.1" y2="336.7"/>
	<line class="st1" x1="-352.8" y1="336.7" x2="-343.9" y2="336.7"/>
</g>
</svg>
