<?xml version="1.0" encoding="utf-8"?>
<!-- Generator: Adobe Illustrator 19.1.0, SVG Export Plug-In . SVG Version: 6.00 Build 0)  -->
<svg version="1.1" id="Layer_1" xmlns="http://www.w3.org/2000/svg" xmlns:xlink="http://www.w3.org/1999/xlink" x="0px" y="0px"
	 viewBox="-361 273 68 68" style="enable-background:new -361 273 68 68;" xml:space="preserve">
<style type="text/css">
	.st0{fill:#FFFFFF;}
	.st1{fill:none;stroke:#FFFFFF;stroke-width:2;stroke-miterlimit:10;}
	.st2{fill:none;stroke:#FFFFFF;stroke-width:2;stroke-linejoin:bevel;stroke-miterlimit:10;}
	.st3{fill:none;stroke:#FFFFFF;stroke-width:2;stroke-linecap:round;stroke-miterlimit:10;}
</style>
<g>
	<path class="st0" d="M-295,278.6v49h-46.5v-49H-295 M-293,276.6h-50.5v53h50.5V276.6L-293,276.6z"/>
	<line class="st1" x1="-318.3" y1="276.6" x2="-318.3" y2="329.6"/>
	<path class="st0" d="M-303.6,312.7v22.7H-359v-22.7H-303.6 M-301.6,310.7H-361v26.7h59.3V310.7L-301.6,310.7z"/>
	<line class="st1" x1="-347" y1="310.7" x2="-347" y2="337.4"/>
	<line class="st1" x1="-331.3" y1="310.7" x2="-331.3" y2="337.4"/>
	<line class="st1" x1="-315.2" y1="310.7" x2="-315.2" y2="337.4"/>
	<line class="st1" x1="-360.5" y1="311.7" x2="-343" y2="304.1"/>
	<line class="st1" x1="-359.7" y1="336.3" x2="-342.3" y2="328.7"/>
	<line class="st1" x1="-303" y1="311.5" x2="-293.7" y2="304.3"/>
	<line class="st2" x1="-302.4" y1="336.6" x2="-293.7" y2="328.7"/>
	<line class="st3" x1="-315.2" y1="301.6" x2="-315.2" y2="306.9"/>
	<line class="st3" x1="-321.6" y1="301.6" x2="-321.6" y2="306.9"/>
</g>
</svg>
