<?xml version="1.0" encoding="utf-8"?>
<!-- Generator: Adobe Illustrator 16.0.0, SVG Export Plug-In . SVG Version: 6.00 Build 0)  -->
<!DOCTYPE svg PUBLIC "-//W3C//DTD SVG 1.1//EN" "http://www.w3.org/Graphics/SVG/1.1/DTD/svg11.dtd">
<svg version="1.1" id="Layer_1" xmlns="http://www.w3.org/2000/svg" xmlns:xlink="http://www.w3.org/1999/xlink" x="0px" y="0px"
	 width="40px" height="40px" viewBox="0 0 40 40" enable-background="new 0 0 40 40" xml:space="preserve">
<g>
	<path fill="none" stroke="#FFFFFF" stroke-linecap="round" stroke-linejoin="round" stroke-miterlimit="10" d="M27.82,16.307
		H12.495c-0.956,0-1.703-0.641-1.81-1.597L9.089,3.323C8.983,2.15,9.834,1.194,10.898,1.194h18.309c1.062,0,2.02,0.957,1.809,2.129
		L29.631,14.71C29.525,15.562,28.779,16.307,27.82,16.307z"/>
	<path fill="none" stroke="#FFFFFF" stroke-linecap="round" stroke-linejoin="round" stroke-miterlimit="10" d="M20.052,19.604
		c6.116,0,11.069,1.544,11.069,3.449c0,1.879-4.953,3.406-11.069,3.406c-6.113,0-11.069-1.527-11.069-3.406
		C8.983,21.148,13.94,19.604,20.052,19.604z"/>
	<path fill="none" stroke="#FFFFFF" stroke-linecap="round" stroke-linejoin="round" stroke-miterlimit="10" d="M8.878,23.053"/>
	
		<line fill="none" stroke="#FFFFFF" stroke-linecap="round" stroke-linejoin="round" stroke-miterlimit="10" x1="15.583" y1="16.307" x2="15.583" y2="19.604"/>
	
		<line fill="none" stroke="#FFFFFF" stroke-linecap="round" stroke-linejoin="round" stroke-miterlimit="10" x1="24.629" y1="16.788" x2="24.629" y2="20.084"/>
	<path fill="none" stroke="#FFFFFF" stroke-linecap="round" stroke-linejoin="round" stroke-miterlimit="10" d="M20.052,33.059
		c0,0,10.858-0.105,11.069-9.473"/>
	<path fill="none" stroke="#FFFFFF" stroke-linecap="round" stroke-linejoin="round" stroke-miterlimit="10" d="M20.052,33.059
		c0,0-10.855-0.105-11.069-9.473"/>
	<path fill="none" stroke="#FFFFFF" stroke-linecap="round" stroke-linejoin="round" stroke-miterlimit="10" d="M23.992,32.42
		l1.701,5.213c0.213,0.641-0.211,1.174-0.852,1.174h-9.367c-0.639,0-1.064-0.639-0.852-1.174l1.596-5.213"/>
	
		<line fill="none" stroke="#FFFFFF" stroke-linecap="round" stroke-linejoin="round" stroke-miterlimit="10" x1="15.208" y1="4.494" x2="11.802" y2="4.494"/>
	
		<ellipse fill="none" stroke="#FFFFFF" stroke-linecap="round" stroke-linejoin="round" stroke-miterlimit="10" cx="15.265" cy="5.982" rx="1.49" ry="1.49"/>
</g>
</svg>
