<?xml version="1.0" encoding="utf-8"?>
<!-- Generator: Adobe Illustrator 16.0.0, SVG Export Plug-In . SVG Version: 6.00 Build 0)  -->
<!DOCTYPE svg PUBLIC "-//W3C//DTD SVG 1.1//EN" "http://www.w3.org/Graphics/SVG/1.1/DTD/svg11.dtd">
<svg class="unit-details-feature__icon" version="1.1" id="Layer_1" xmlns="http://www.w3.org/2000/svg" xmlns:xlink="http://www.w3.org/1999/xlink" x="0px" y="0px"
viewBox="0 0 68 68" style="enable-background:new 0 0 68 68;" xml:space="preserve">
<style type="text/css">
.bath-st0{fill:none;stroke:#8B93A1;stroke-width:2;stroke-linecap:round;stroke-linejoin:round;stroke-miterlimit:10;}
</style>
<g>
<path class="bath-st0" d="M47.7,27.5H20.8c-1.7,0-3-1.1-3.2-2.8l-2.8-20C14.6,2.7,16.1,1,18,1h32.2c1.9,0,3.6,1.7,3.2,3.7l-2.4,20
C50.7,26.2,49.4,27.5,47.7,27.5z"/>
<ellipse class="bath-st0" cx="34.1" cy="39.3" rx="19.4" ry="6"/>
<line class="bath-st0" x1="26.2" y1="27.5" x2="26.2" y2="33.3"/>
<line class="bath-st0" x1="42.1" y1="27.5" x2="42.1" y2="33.3"/>
<path class="bath-st0" d="M34.1,56.9c0,0,19.1-0.2,19.4-16.6"/>
<path class="bath-st0" d="M34.1,56.9c0,0-19.1-0.2-19.4-16.6"/>
<path class="bath-st0" d="M41,55.8l3,9.2c0.4,1.1-0.4,2.1-1.5,2.1H26.1c-1.1,0-1.9-1.1-1.5-2.1l2.8-9.2"/>
<line class="bath-st0" x1="31.5" y1="6.8" x2="25.5" y2="6.8"/>
<ellipse class="bath-st0" cx="25.7" cy="9.4" rx="2.6" ry="2.6"/>
</g>
</svg>
