<?xml version="1.0" encoding="utf-8"?>
<!-- Generator: Adobe Illustrator 16.0.0, SVG Export Plug-In . SVG Version: 6.00 Build 0)  -->
<!DOCTYPE svg PUBLIC "-//W3C//DTD SVG 1.1//EN" "http://www.w3.org/Graphics/SVG/1.1/DTD/svg11.dtd">
<svg version="1.1" id="Layer_1" xmlns="http://www.w3.org/2000/svg" xmlns:xlink="http://www.w3.org/1999/xlink" x="0px" y="0px"
viewBox="0 0 78 68" style="enable-background:new 0 0 78 68;" xml:space="preserve">
<style type="text/css">
.bed-st0{fill:#8B93A1;}
.bed-st1{fill:none;stroke:#8B93A1;stroke-width:2;stroke-linecap:round;stroke-linejoin:round;stroke-miterlimit:10;}
</style>
<g>
<g>
<path class="bed-st0" d="M77,54.1H1c-0.3,0-0.7-0.2-0.8-0.5C0,53.3-0.1,53,0.1,52.7l13.3-30.9c0.2-0.5,0.8-0.7,1.3-0.5
c0.5,0.2,0.7,0.8,0.5,1.3L2.5,52.1h72.9L61.7,22.6c-0.2-0.5,0-1.1,0.5-1.3c0.5-0.2,1.1,0,1.3,0.5l14.3,30.9c0.1,0.3,0.1,0.7-0.1,1
S77.3,54.1,77,54.1z"/>
</g>
<g>
<path class="bed-st0" d="M77,68c-0.6,0-1-0.4-1-1V40.4c0-0.6,0.4-1,1-1s1,0.4,1,1V67C78,67.6,77.6,68,77,68z"/>
</g>
<g>
<path class="bed-st0" d="M1,67.8c-0.6,0-1-0.4-1-1V40.2c0-0.6,0.4-1,1-1s1,0.4,1,1v26.6C2,67.4,1.6,67.8,1,67.8z"/>
</g>
<g>
<path class="bed-st0" d="M63.7,23.2h-4.5v-2h2.5v-16c0-1.9-1.6-3.2-3.1-3.2H18.4c-1.7,0-3.1,1.4-3.1,3.2v16h2.4v2h-4.4v-18
c0-2.8,2.3-5.2,5.1-5.2h40.2c2.8,0,5.1,2.4,5.1,5.2V23.2z"/>
</g>
<g>
<path class="bed-st0" d="M32.9,32H21c-2.4,0-4.4-2-4.4-4.4v-11c0-2.4,2-4.4,4.4-4.4h11.9c2.4,0,4.4,2,4.4,4.4v11
C37,30.1,35.1,32,32.9,32z M21,14.1c-1.5,0-2.4,1.3-2.4,2.4v11c0,1.5,1.2,2.4,2.4,2.4h11.9c1.2,0,2.2-1.1,2.4-2.5l0-10.9
c0-1.5-1.2-2.4-2.4-2.4H21z"/>
</g>
<g>
<path class="bed-st0" d="M56.3,32H43.2c-2.1,0-3.7-1.6-3.7-3.7V16.2c0-2.1,1.6-3.7,3.7-3.7h13.1c2.1,0,3.7,1.6,3.7,3.7v12.1
c0.1,0.9-0.2,1.8-0.8,2.5C58.4,31.6,57.4,32,56.3,32z M43.2,14.5c-0.8,0-1.7,0.6-1.7,1.7v12.1c0,0.9,0.6,1.7,1.7,1.7h13.1
c0.5,0,1-0.2,1.3-0.6c0.3-0.3,0.4-0.7,0.3-1l0-0.1V16.2c0-0.9-0.6-1.7-1.7-1.7H43.2z"/>
</g>
<g>
<path class="bed-st0" d="M78,67.5H0V53.1c0-0.6,0.4-1,1-1s1,0.4,1,1v12.4h74V53.1c0-0.6,0.4-1,1-1s1,0.4,1,1V67.5z"/>
</g>
<g>
<rect x="36.1" y="21.2" class="bed-st0" width="4.4" height="2"/>
</g>
</g>
</svg>
