<?xml version="1.0" encoding="utf-8"?>
<!-- Generator: Adobe Illustrator 16.0.0, SVG Export Plug-In . SVG Version: 6.00 Build 0)  -->
<!DOCTYPE svg PUBLIC "-//W3C//DTD SVG 1.1//EN" "http://www.w3.org/Graphics/SVG/1.1/DTD/svg11.dtd">
<svg version="1.1" id="Layer_1" xmlns="http://www.w3.org/2000/svg" xmlns:xlink="http://www.w3.org/1999/xlink" x="0px" y="0px"
	 width="40px" height="40px" viewBox="0 0 40 40" enable-background="new 0 0 40 40" xml:space="preserve">
<g>
	<polyline fill="none" stroke="#FFFFFF" stroke-linecap="round" stroke-linejoin="round" stroke-miterlimit="10" points="
		31.332,14.44 38.207,28.955 1.792,28.955 8.159,14.44 	"/>
	<path fill="none" stroke="#FFFFFF" stroke-linecap="round" stroke-linejoin="round" stroke-miterlimit="10" d="M31.332,14.44"/>
	<path fill="none" stroke="#FFFFFF" stroke-linecap="round" stroke-linejoin="round" stroke-miterlimit="10" d="M8.159,14.44"/>
	
		<line fill="none" stroke="#FFFFFF" stroke-linecap="round" stroke-linejoin="round" stroke-miterlimit="10" x1="38.207" y1="23.013" x2="38.207" y2="35.491"/>
	
		<line fill="none" stroke="#FFFFFF" stroke-linecap="round" stroke-linejoin="round" stroke-miterlimit="10" x1="1.792" y1="22.928" x2="1.792" y2="35.406"/>
	<path fill="none" stroke="#FFFFFF" stroke-miterlimit="10" d="M29.635,14.44h1.697V6.461c0-1.104-0.934-1.952-1.951-1.952h-19.27
		c-1.104,0-1.952,0.935-1.952,1.952v7.979h1.613"/>
	<path fill="none" stroke="#FFFFFF" stroke-miterlimit="10" d="M17.071,18.599h-5.688c-0.849,0-1.613-0.678-1.613-1.613v-5.177
		c0-0.85,0.679-1.613,1.613-1.613h5.688c0.85,0,1.613,0.679,1.613,1.613v5.177C18.601,17.834,17.921,18.599,17.071,18.599z"/>
	<path fill="none" stroke="#FFFFFF" stroke-miterlimit="10" d="M28.275,18.599h-6.279c-0.766,0-1.273-0.594-1.273-1.272v-5.688
		c0-0.765,0.592-1.273,1.273-1.273h6.279c0.766,0,1.275,0.593,1.275,1.273v5.688C29.635,18.005,29.041,18.599,28.275,18.599z"/>
	<polyline fill="none" stroke="#FFFFFF" stroke-linecap="round" stroke-miterlimit="10" points="1.792,28.955 1.792,35.236 
		38.207,35.236 38.207,28.955 	"/>
	<line fill="none" stroke="#FFFFFF" stroke-miterlimit="10" x1="18.601" y1="14.44" x2="20.723" y2="14.44"/>
</g>
</svg>
