<?xml version="1.0" encoding="utf-8"?>
<!-- Generator: Adobe Illustrator 19.1.0, SVG Export Plug-In . SVG Version: 6.00 Build 0)  -->
<svg version="1.1" id="Layer_1" xmlns="http://www.w3.org/2000/svg" xmlns:xlink="http://www.w3.org/1999/xlink" x="0px" y="0px"
	 viewBox="-361 273 68 68" style="enable-background:new -361 273 68 68;" xml:space="preserve">
<style type="text/css">
	.st0{fill:#FFFFFF;}
	.st1{fill:none;stroke:#FFFFFF;stroke-width:2;stroke-miterlimit:10;}
</style>
<g>
	<g>
		<path class="st0" d="M-305.7,276.2V301h-22.8c-1.7,0-3.1-1.4-3.1-3.1v-18.7c0-1.7,1.4-3.1,3.1-3.1H-305.7 M-303.7,274.2h-24.8
			c-2.8,0-5.1,2.3-5.1,5.1V298c0,2.8,2.3,5.1,5.1,5.1h24.8V274.2L-303.7,274.2z"/>
	</g>
	<g>
		<path class="st0" d="M-297,281.9v12.2h-6.7v-12.2H-297 M-296.8,279.9h-7.1c-1,0-1.8,0.8-1.8,1.8v12.6c0,1,0.8,1.8,1.8,1.8h7.1
			c1,0,1.8-0.8,1.8-1.8v-12.6C-295,280.7-295.8,279.9-296.8,279.9L-296.8,279.9z"/>
	</g>
	<path class="st1" d="M-344,339.8h27.5c7.1,0,12.8-5.7,12.8-12.8s-5.7-12.8-12.8-12.8h-29.7c-7.1,0-12.8-5.7-12.8-12.8
		c0-7.1,5.7-12.8,12.8-12.8h13.3"/>
</g>
</svg>
