<?xml version="1.0" encoding="utf-8"?>
<!-- Generator: Adobe Illustrator 19.1.0, SVG Export Plug-In . SVG Version: 6.00 Build 0)  -->
<svg version="1.1" id="Layer_1" xmlns="http://www.w3.org/2000/svg" xmlns:xlink="http://www.w3.org/1999/xlink" x="0px" y="0px"
	 viewBox="-361 273 68 68" style="enable-background:new -361 273 68 68;" xml:space="preserve">
<style type="text/css">
	.st0{fill:none;stroke:#FFFFFF;stroke-width:2.2624;stroke-miterlimit:10;}
</style>
<path class="st0" d="M-334,329.7c0,0-0.9-10.9,8.9-14.5c9.8-3.6,9.2-13,9.2-13s-10.9-8.5-0.9-17.9l6.4-9.6c0.1-0.2,0.4-0.1,0.4,0.1
	v7.2c0,0,7,0.4,8.3,3.6s-1.1,4.3,3,7.4c4.1,3-4.7,9.8-4.7,9.8s4.1,6.8-4,13.6c0,0-1.1,10,0.2,12.1c1.3,2.1,3.2,4.5,5.1,5.7
	s0.6,5.1-1.1,5.3s-22.6,0-22.6,0l-2.6-1.7c0,0-12.6,6.4-24.1-9.2c-8.9-12.1,0.6-21.7,5.3-25.5c0.5-0.4,1.3,0.2,1,0.8
	C-349.4,309.8-355,325.3-334,329.7z"/>
</svg>
