<?xml version="1.0" encoding="utf-8"?>
<!-- Generator: Adobe Illustrator 19.1.0, SVG Export Plug-In . SVG Version: 6.00 Build 0)  -->
<svg version="1.1" id="Layer_1" xmlns="http://www.w3.org/2000/svg" xmlns:xlink="http://www.w3.org/1999/xlink" x="0px" y="0px"
	 viewBox="-361 273 68 68" style="enable-background:new -361 273 68 68;" xml:space="preserve">
<style type="text/css">
	.st0{fill:#FFFFFF;}
</style>
<g>
	<g>
		<path class="st0" d="M-327.3,298.1c13.2,0,24,7.7,25.4,17.5h-50.7C-351.3,305.8-340.4,298.1-327.3,298.1 M-327.3,296.1
			c-15.2,0-27.5,9.6-27.5,21.5h55C-299.8,305.8-312.1,296.1-327.3,296.1L-327.3,296.1z"/>
	</g>
	<g>
		<path class="st0" d="M-295,322.8v5.3h-64v-5.3H-295 M-293,320.8h-68v9.3h68V320.8L-293,320.8z"/>
	</g>
	<g>
		<path class="st0" d="M-322,283.9h-10.4c-0.7,0-1.3,0.6-1.3,1.3v1.1c0,0.7,0.6,1.3,1.3,1.3h3v5.4h4.8v-5.4h2.6
			c0.7,0,1.3-0.6,1.3-1.3v-1.1C-320.8,284.5-321.3,283.9-322,283.9z"/>
	</g>
</g>
</svg>
