<?xml version="1.0" encoding="utf-8"?>
<!-- Generator: Adobe Illustrator 16.0.0, SVG Export Plug-In . SVG Version: 6.00 Build 0)  -->
<!DOCTYPE svg PUBLIC "-//W3C//DTD SVG 1.1//EN" "http://www.w3.org/Graphics/SVG/1.1/DTD/svg11.dtd">
<svg class="unit-details-feature__icon" version="1.1" id="Layer_1" xmlns="http://www.w3.org/2000/svg" xmlns:xlink="http://www.w3.org/1999/xlink" x="0px" y="0px"
viewBox="0 0 68 68" style="enable-background:new 0 0 68 68;" xml:space="preserve">
<style type="text/css">
.dishwasher-st0{fill:#8B93A1;}
</style>
<g>
<g>
<path class="dishwasher-st0" d="M56.9,68H11.1c-0.6,0-1-0.4-1-1V1c0-0.6,0.4-1,1-1h45.8c0.6,0,1,0.4,1,1v66C57.9,67.6,57.5,68,56.9,68z
M12.1,66h43.8V2H12.1V66z"/>
</g>
<g>
<circle class="dishwasher-st0" cx="35.7" cy="7.7" r="2.2"/>
</g>
<g>
<circle class="dishwasher-st0" cx="42.8" cy="7.7" r="2.2"/>
</g>
<g>
<circle class="dishwasher-st0" cx="49.9" cy="7.7" r="2.2"/>
</g>
<g>
<path class="dishwasher-st0" d="M56.5,16.1H11.1c-0.6,0-1-0.4-1-1s0.4-1,1-1h45.4c0.6,0,1,0.4,1,1S57,16.1,56.5,16.1z"/>
</g>
<g>
<path class="dishwasher-st0" d="M35.7,58.7c-0.6,0-1-0.4-1-1v-13c-4.3-1-7.2-3.1-8.5-6c-2.4-5.3,1.3-11.6,1.4-11.8c0.2-0.3,0.5-0.5,0.9-0.5
H43c0.4,0,0.7,0.2,0.9,0.5c0.2,0.3,3.8,6.5,1.4,11.8c-1.3,3-4.2,5-8.5,6v13C36.7,58.2,36.3,58.7,35.7,58.7z M29.1,28.4
c-0.7,1.5-2.7,5.9-1,9.5c1.1,2.5,3.7,4.1,7.7,5c4-0.9,6.6-2.5,7.7-5c1.6-3.6-0.3-8.1-1-9.5H29.1z"/>
</g>
<g>
<path class="dishwasher-st0" d="M40.4,59.7h-8.8c-0.6,0-1-0.4-1-1s0.4-1,1-1h8.8c0.6,0,1,0.4,1,1S40.9,59.7,40.4,59.7z"/>
</g>
<g>
<path class="dishwasher-st0" d="M26.9,36.8c-0.3,0-0.6-0.1-0.8-0.4c-0.3-0.4-0.3-1.1,0.2-1.4c0.2-0.1,4-3.1,11-0.9c0.5,0.2,0.8,0.7,0.7,1.3
c-0.2,0.5-0.7,0.8-1.3,0.7c-6-1.9-9.1,0.5-9.1,0.5C27.3,36.8,27.1,36.8,26.9,36.8z"/>
</g>
<g>
<path class="dishwasher-st0" d="M39.2,36.4c-1.4,0-3.1-0.2-5-0.8c-0.5-0.2-0.8-0.7-0.7-1.3c0.2-0.5,0.7-0.8,1.3-0.7c5.9,1.9,8.8-0.3,8.9-0.4
c0.4-0.3,1.1-0.3,1.4,0.2s0.3,1-0.1,1.4C44.9,34.9,42.9,36.4,39.2,36.4z"/>
</g>
</g>
</svg>
