<?xml version="1.0" encoding="utf-8"?>
<!-- Generator: Adobe Illustrator 19.1.0, SVG Export Plug-In . SVG Version: 6.00 Build 0)  -->
<svg version="1.1" id="Layer_1" xmlns="http://www.w3.org/2000/svg" xmlns:xlink="http://www.w3.org/1999/xlink" x="0px" y="0px"
	 viewBox="-361 273 68 68" style="enable-background:new -361 273 68 68;" xml:space="preserve">
<style type="text/css">
	.st0{fill:#FFFFFF;}
</style>
<g>
	<path class="st0" d="M-327,275c10.8,0,19.6,8.8,19.6,19.6c0,4.3-4.1,11.4-5.7,13.9c-0.8,1-6.5,8.4-5.8,17.3H-335
		c0.7-8.9-5.1-16.3-5.8-17.3c-1.7-2.5-5.8-9.7-5.8-13.9C-346.6,283.8-337.8,275-327,275 M-327,273c-11.9,0-21.6,9.7-21.6,21.6
		c0,5.9,6.2,15.1,6.2,15.1s6.4,7.7,5.4,16.6c-0.1,0.8,0.5,1.5,1.3,1.5h17.1c1,0,1.8-0.9,1.7-1.9c-0.8-8.7,5.4-16.2,5.4-16.2
		s6.1-9.2,6.1-15.1C-305.4,282.7-315.1,273-327,273L-327,273z"/>
</g>
<path class="st0" d="M-319.2,332h-15.3c-0.7,0-1.2-0.6-1.2-1.2v-0.9c0-0.7,0.6-1.2,1.2-1.2h15.3c0.7,0,1.2,0.6,1.2,1.2v0.9
	C-318,331.5-318.5,332-319.2,332z"/>
<path class="st0" d="M-320.3,336.5h-13.1c-0.7,0-1.2-0.6-1.2-1.2v-0.9c0-0.7,0.6-1.2,1.2-1.2h13.1c0.7,0,1.2,0.6,1.2,1.2v0.9
	C-319.1,336-319.6,336.5-320.3,336.5z"/>
<path class="st0" d="M-322.4,341h-9c-0.7,0-1.2-0.6-1.2-1.2v-0.9c0-0.7,0.6-1.2,1.2-1.2h9c0.7,0,1.2,0.6,1.2,1.2v0.9
	C-321.2,340.4-321.7,341-322.4,341z"/>
</svg>
