<?xml version="1.0" encoding="utf-8"?>
<!-- Generator: Adobe Illustrator 16.0.0, SVG Export Plug-In . SVG Version: 6.00 Build 0)  -->
<!DOCTYPE svg PUBLIC "-//W3C//DTD SVG 1.1//EN" "http://www.w3.org/Graphics/SVG/1.1/DTD/svg11.dtd">
<svg class="unit-details-feature__icon" version="1.1" id="Layer_1" xmlns="http://www.w3.org/2000/svg" xmlns:xlink="http://www.w3.org/1999/xlink" x="0px" y="0px"
viewBox="0 0 68 68" style="enable-background:new 0 0 68 68;" xml:space="preserve">
<style type="text/css">
.elevator-st0{fill:#8B93A1;}
</style>
<g>
<g>
<path class="elevator-st0" d="M67.1,68H53.5V18.2H14.5V68H0.9V4.2C0.9,1.8,2.7,0,5.1,0h57.8c2.3,0,4.2,1.8,4.2,4.2V68z M55.5,66h9.6V4.2
c0-1.2-0.9-2.2-2.2-2.2H5.1C3.8,2,2.9,2.9,2.9,4.2V66h9.6V16.2h43.1V66z"/>
</g>
<g>
<path class="elevator-st0" d="M34,64.6c-0.6,0-1-0.4-1-1V17.2c0-0.6,0.4-1,1-1s1,0.4,1,1v46.5C35,64.2,34.6,64.6,34,64.6z"/>
</g>
<g>
<path class="elevator-st0" d="M53.5,64.6H13.5c-0.6,0-1-0.4-1-1s0.4-1,1-1h40.1c0.6,0,1,0.4,1,1S54.1,64.6,53.5,64.6z"/>
</g>
<g>
<path class="elevator-st0" d="M28.4,12.2c-0.2,0-0.5-0.1-0.7-0.3L25,9.4l-2.5,2.5c-0.4,0.4-1,0.4-1.4,0c-0.4-0.4-0.4-1,0-1.4l3.2-3.2
c0.4-0.4,1-0.4,1.4,0l3.4,3.2c0.4,0.4,0.4,1,0,1.4C28.9,12.1,28.7,12.2,28.4,12.2z"/>
</g>
<g>
<path class="elevator-st0" d="M43,12.2c-0.2,0-0.5-0.1-0.7-0.3l-3.4-3.2c-0.4-0.4-0.4-1,0-1.4c0.4-0.4,1-0.4,1.4,0L43,9.8l2.5-2.5
c0.4-0.4,1-0.4,1.4,0s0.4,1,0,1.4l-3.2,3.2C43.5,12.1,43.2,12.2,43,12.2z"/>
</g>
<g>
<circle class="elevator-st0" cx="60.5" cy="31.3" r="2.2"/>
</g>
<g>
<circle class="elevator-st0" cx="60.5" cy="38.1" r="2.2"/>
</g>
</g>
</svg>
