<?xml version="1.0" encoding="utf-8"?>
<!-- Generator: Adobe Illustrator 16.0.0, SVG Export Plug-In . SVG Version: 6.00 Build 0)  -->
<!DOCTYPE svg PUBLIC "-//W3C//DTD SVG 1.1//EN" "http://www.w3.org/Graphics/SVG/1.1/DTD/svg11.dtd">
<svg version="1.1" id="Layer_1" xmlns="http://www.w3.org/2000/svg" xmlns:xlink="http://www.w3.org/1999/xlink" x="0px" y="0px"
	 width="40px" height="40px" viewBox="-199.5 150.5 40 40" enable-background="new -199.5 150.5 40 40" xml:space="preserve">
<g>
	<path fill="transparent" stroke="#FFFFFF" class="hover-fill" d="M-168.958,175.44v-3.882h-2.643h-1.233v-1.293v-2.589c0-1.647,1.292-2.588,2.469-2.588h2.699v-3.883h-5.167
		c-2.055,0-3.876,1.764-3.876,3.883v6.47h-3.876v3.882h3.876l-0.06,14.297h3.936V175.44H-168.958L-168.958,175.44z"/>
	<g>
		<path fill="#FFFFFF" d="M-167.077,151.676c3.524,0,6.34,2.822,6.34,6.354v25c0,3.47-2.816,6.293-6.34,6.293h-24.904
			c-3.525,0-6.345-2.823-6.345-6.351V158.03c0-3.53,2.82-6.354,6.345-6.354L-167.077,151.676 M-167.077,150.5h-24.904
			c-4.171,0-7.519,3.352-7.519,7.529v25c0,4.117,3.347,7.471,7.519,7.471h24.964c4.11,0,7.517-3.354,7.517-7.528V158.03
			C-159.557,153.852-162.908,150.5-167.077,150.5L-167.077,150.5z"/>
	</g>
</g>
</svg>
