<?xml version="1.0" encoding="utf-8"?>
<!-- Generator: Adobe Illustrator 16.0.0, SVG Export Plug-In . SVG Version: 6.00 Build 0)  -->
<!DOCTYPE svg PUBLIC "-//W3C//DTD SVG 1.1//EN" "http://www.w3.org/Graphics/SVG/1.1/DTD/svg11.dtd">
<svg version="1.1" id="Layer_1" xmlns="http://www.w3.org/2000/svg" xmlns:xlink="http://www.w3.org/1999/xlink" x="0px" y="0px"
	 width="40px" height="40px" viewBox="0 0 40 40" enable-background="new 0 0 40 40" xml:space="preserve">
<g>
	<path fill="#FFFFFF" d="M21.356,23.668c0.303-0.101,0.505-0.204,0.702-0.402c0.305-0.302,0.403-0.604,0.505-0.907
		c0-0.099,0-0.201,0.1-0.302c0.101-0.198,0.202-0.198,0.303-0.098c0.201,0.197,0.404,0.301,0.503,0.502
		c0.403,0.502,0.704,1.001,0.904,1.607c0.104,0.302,0.104,0.603,0.104,0.907c-0.104,1.004-0.505,1.907-1.209,2.713
		c-0.202,0.3-0.504,0.503-0.904,0.703h-0.103c0,0,0,0-0.102,0c0-0.2,0-0.403-0.103-0.502c0-0.505-0.299-1.007-0.701-1.406
		c-0.302-0.403-0.704-0.703-1.007-1.108c-0.301-0.302-0.5-0.602-0.603-0.906c-0.1-0.403-0.1-0.805,0-1.207v-0.099l0,0
		c-0.2,0.102-0.302,0.201-0.501,0.201c-0.805,0.502-1.307,1.206-1.409,2.011c0,0.403,0.103,0.804,0.201,1.208
		c0.203,0.603,0.603,1.207,0.906,1.713c0,0,0,0,0,0.099c-0.103,0-0.304,0-0.403,0c-0.602-0.099-1.003-0.406-1.407-0.706
		c-0.401-0.4-0.704-0.904-0.805-1.508c-0.2-0.903,0-1.808,0.403-2.612c0.201-0.5,0.503-1.005,0.705-1.408
		c0.299-0.602,0.399-1.206,0.399-1.91c0-0.401-0.101-0.905-0.101-1.307c0-0.103,0-0.103,0-0.202c0-0.2,0.101-0.2,0.302-0.2
		c0.203,0.1,0.403,0.1,0.502,0.2c1.006,0.604,1.71,1.408,2.212,2.413c0.303,0.604,0.505,1.206,0.505,1.91
		C21.46,23.267,21.356,23.464,21.356,23.668z"/>
	
		<rect x="4.166" y="5.372" fill="none" stroke="#FFFFFF" stroke-width="0.7614" stroke-linecap="round" stroke-linejoin="round" stroke-miterlimit="10" width="31.566" height="23.323"/>
	
		<rect x="10.7" y="11.202" fill="none" stroke="#FFFFFF" stroke-width="0.7614" stroke-linecap="round" stroke-linejoin="round" stroke-miterlimit="10" width="18.698" height="17.394"/>
	
		<rect x="0.648" y="28.595" fill="none" stroke="#FFFFFF" stroke-width="0.7614" stroke-linecap="round" stroke-linejoin="round" stroke-miterlimit="10" width="38.703" height="6.033"/>
</g>
</svg>
