<?xml version="1.0" encoding="utf-8"?>
<!-- Generator: Adobe Illustrator 16.0.0, SVG Export Plug-In . SVG Version: 6.00 Build 0)  -->
<!DOCTYPE svg PUBLIC "-//W3C//DTD SVG 1.1//EN" "http://www.w3.org/Graphics/SVG/1.1/DTD/svg11.dtd">
<svg class="unit-details-feature__icon" version="1.1" id="Layer_1" xmlns="http://www.w3.org/2000/svg" xmlns:xlink="http://www.w3.org/1999/xlink" x="0px" y="0px"
viewBox="0 0 89 68" style="enable-background:new 0 0 89 68;" xml:space="preserve">
<style type="text/css">
.fireplace-st0{fill:#8B93A1;}
</style>
<g>
<g>
<path class="fireplace-st0" d="M50.8,38.8c1.2-0.4,3.3,4.1,3.5,4.9c0.8,2.8-1.3,9.7-5,9.7c0-4.9-6.5-6.5-5.4-11.8c-2,0.7-3.7,2.3-4.2,4.4
c-0.7,3.1,2.4,4.7,2.4,7.3c-4.6,0-6.7-4.7-5.7-8.7c1-3.9,3.4-6.4,3.2-10.5c0-0.8-0.6-2.4,0.3-2.9c0.9-0.4,2.9,1.4,3.4,1.9
c2.6,2.4,4.3,6.1,4.3,9.6C48.2,42.6,49.5,39.3,50.8,38.8z"/>
</g>
<g>
<path class="fireplace-st0" d="M79.9,54.4h-71c-0.6,0-1-0.4-1-1V1c0-0.6,0.4-1,1-1h71c0.6,0,1,0.4,1,1v52.4C80.9,54,80.4,54.4,79.9,54.4z
M9.9,52.4h69V2h-69V52.4z"/>
</g>
<g>
<path class="fireplace-st0" d="M65.6,54.4h-42c-0.6,0-1-0.4-1-1V14.3c0-0.6,0.4-1,1-1h42c0.6,0,1,0.4,1,1v39.1C66.6,54,66.2,54.4,65.6,54.4z
M24.6,52.4h40V15.3h-40V52.4z"/>
</g>
<g>
<path class="fireplace-st0" d="M88,68H1c-0.6,0-1-0.4-1-1V53.4c0-0.6,0.4-1,1-1h87c0.6,0,1,0.4,1,1V67C89,67.6,88.6,68,88,68z M2,66h85V54.4
H2V66z"/>
</g>
</g>
</svg>
