<?xml version="1.0" encoding="utf-8"?>
<!-- Generator: Adobe Illustrator 16.0.0, SVG Export Plug-In . SVG Version: 6.00 Build 0)  -->
<!DOCTYPE svg PUBLIC "-//W3C//DTD SVG 1.1//EN" "http://www.w3.org/Graphics/SVG/1.1/DTD/svg11.dtd">
<svg version="1.1" id="Layer_1" xmlns="http://www.w3.org/2000/svg" xmlns:xlink="http://www.w3.org/1999/xlink" x="0px" y="0px"
	 width="40px" height="40px" viewBox="0 0 40 40" enable-background="new 0 0 40 40" xml:space="preserve">
<g>
	<path fill="#FFFFFF" d="M21.334,23.606c0.297-0.099,0.496-0.201,0.689-0.396c0.3-0.297,0.397-0.594,0.496-0.891
		c0-0.098,0-0.199,0.099-0.297c0.099-0.196,0.198-0.196,0.297-0.096c0.198,0.193,0.397,0.295,0.495,0.493
		c0.396,0.493,0.692,0.984,0.889,1.58c0.101,0.297,0.101,0.592,0.101,0.892c-0.101,0.986-0.496,1.875-1.188,2.665
		c-0.198,0.295-0.495,0.496-0.889,0.692h-0.101c0,0,0,0-0.099,0c0-0.196,0-0.397-0.101-0.493c0-0.496-0.294-0.989-0.689-1.382
		c-0.297-0.397-0.693-0.692-0.99-1.09c-0.296-0.297-0.492-0.592-0.592-0.891c-0.098-0.396-0.098-0.791,0-1.186V23.11l0,0
		c-0.197,0.099-0.297,0.196-0.493,0.196c-0.791,0.494-1.284,1.186-1.385,1.977c0,0.397,0.101,0.79,0.198,1.188
		c0.199,0.592,0.592,1.186,0.891,1.684c0,0,0,0,0,0.096c-0.101,0-0.299,0-0.397,0c-0.591-0.096-0.986-0.4-1.383-0.694
		c-0.395-0.394-0.692-0.889-0.791-1.482c-0.197-0.887,0-1.777,0.396-2.567c0.198-0.493,0.494-0.989,0.693-1.385
		c0.294-0.591,0.393-1.186,0.393-1.877c0-0.394-0.099-0.889-0.099-1.284c0-0.101,0-0.101,0-0.199c0-0.196,0.099-0.196,0.297-0.196
		c0.199,0.098,0.396,0.098,0.493,0.196c0.989,0.594,1.681,1.384,2.175,2.372c0.297,0.594,0.496,1.186,0.496,1.877
		C21.435,23.211,21.334,23.405,21.334,23.606z"/>
	
		<rect x="4.437" y="5.622" fill="none" stroke="#FFFFFF" stroke-width="0.7614" stroke-linecap="round" stroke-linejoin="round" stroke-miterlimit="10" width="31.027" height="22.925"/>
	
		<rect x="10.859" y="11.352" fill="none" stroke="#FFFFFF" stroke-width="0.7614" stroke-linecap="round" stroke-linejoin="round" stroke-miterlimit="10" width="18.38" height="17.097"/>
	
		<rect x="0.979" y="28.448" fill="none" stroke="#FFFFFF" stroke-width="0.7614" stroke-linecap="round" stroke-linejoin="round" stroke-miterlimit="10" width="38.043" height="5.93"/>
</g>
</svg>
