<?xml version="1.0" encoding="utf-8"?>
<!-- Generator: Adobe Illustrator 19.1.0, SVG Export Plug-In . SVG Version: 6.00 Build 0)  -->
<svg version="1.1" id="Layer_1" xmlns="http://www.w3.org/2000/svg" xmlns:xlink="http://www.w3.org/1999/xlink" x="0px" y="0px"
	 viewBox="-361 273 68 68" style="enable-background:new -361 273 68 68;" xml:space="preserve">
<style type="text/css">
	.st0{fill:#FFFFFF;}
	.st1{fill:none;stroke:#FFFFFF;stroke-width:2;stroke-miterlimit:10;}
	.st2{fill:none;stroke:#FFFFFF;stroke-width:2;stroke-linecap:round;stroke-miterlimit:10;}
</style>
<g>
	<g>
		<path class="st0" d="M-302.9,289.6v35.7h-48.3v-35.7H-302.9 M-300.9,287.6h-52.3v39.7h52.3V287.6L-300.9,287.6z"/>
	</g>
	<g>
		<path class="st0" d="M-300.9,282.3c1.2,0,2.2,1,2.2,2.2v1c0,1.2-1,2.2-2.2,2.2H-354c-1.2,0-2.2-1-2.2-2.2v-1c0-1.2,1-2.2,2.2-2.2
			H-300.9 M-300.9,280.3H-354c-2.3,0-4.2,1.9-4.2,4.2v1c0,2.3,1.9,4.2,4.2,4.2h53.1c2.3,0,4.2-1.9,4.2-4.2v-1
			C-296.7,282.2-298.6,280.3-300.9,280.3L-300.9,280.3z"/>
	</g>
	<path class="st1" d="M-336,280.8c0-3.5,4-6.3,8.9-6.3s8.9,2.8,8.9,6.3"/>
	<path class="st1" d="M-302.2,292.7c3.5,0,6.3,3.3,6.3,7.4s-2.8,7.4-6.3,7.4"/>
	<path class="st1" d="M-351.8,307.5c-3.5,0-6.3-3.3-6.3-7.4s2.8-7.4,6.3-7.4"/>
	<line class="st2" x1="-353.2" y1="339.6" x2="-300.9" y2="339.6"/>
	<line class="st2" x1="-350" y1="331.3" x2="-350" y2="336.1"/>
	<line class="st2" x1="-343.4" y1="331.3" x2="-343.4" y2="336.1"/>
	<line class="st2" x1="-336.8" y1="331.3" x2="-336.8" y2="336.1"/>
	<line class="st2" x1="-330.2" y1="331.3" x2="-330.2" y2="336.1"/>
	<line class="st2" x1="-323.6" y1="331.3" x2="-323.6" y2="336.1"/>
	<line class="st2" x1="-317" y1="331.3" x2="-317" y2="336.1"/>
	<line class="st2" x1="-310.4" y1="331.3" x2="-310.4" y2="336.1"/>
	<line class="st2" x1="-303.8" y1="331.3" x2="-303.8" y2="336.1"/>
</g>
</svg>
