<?xml version="1.0" encoding="utf-8"?>
<!-- Generator: Adobe Illustrator 19.1.0, SVG Export Plug-In . SVG Version: 6.00 Build 0)  -->
<svg version="1.1" id="Layer_1" xmlns="http://www.w3.org/2000/svg" xmlns:xlink="http://www.w3.org/1999/xlink" x="0px" y="0px"
	 viewBox="-361 273 68 68" style="enable-background:new -361 273 68 68;" xml:space="preserve">
<style type="text/css">
	.st0{fill:none;stroke:#FFFFFF;stroke-width:2;stroke-miterlimit:10;}
	.st1{fill:none;stroke:#FFFFFF;stroke-width:2;stroke-linecap:round;stroke-miterlimit:10;}
</style>
<g>
	<path class="st0" d="M-318.5,292.4l-7.8-7.8c-0.9-0.9-0.9-2.4,0-3.3l5.4-5.4c0.9-0.9,2.4-0.9,3.3,0l7.8,7.8c0.9,0.9,0.9,2.4,0,3.3
		l-5.4,5.4C-316.1,293.3-317.6,293.3-318.5,292.4z"/>
	<path class="st0" d="M-342.6,315.9l-7.8-7.8c-0.9-0.9-0.9-2.4,0-3.3l5.4-5.4c0.9-0.9,2.4-0.9,3.3,0l7.8,7.8c0.9,0.9,0.9,2.4,0,3.3
		l-5.4,5.4C-340.1,316.9-341.6,316.9-342.6,315.9z"/>
	<line class="st0" x1="-339.8" y1="301.1" x2="-324.8" y2="286.1"/>
	<line class="st0" x1="-336" y1="304.9" x2="-321" y2="289.9"/>
	<path class="st1" d="M-321.6,280.6l1.5-1.5c0.2-0.2,0.6-0.2,0.8,0l3.1,3.1"/>
	<path class="st0" d="M-312.4,314.7l-7.8-7.8c-0.9-0.9-0.9-2.4,0-3.3l5.4-5.4c0.9-0.9,2.4-0.9,3.3,0l7.8,7.8c0.9,0.9,0.9,2.4,0,3.3
		l-5.4,5.4C-310,315.6-311.5,315.6-312.4,314.7z"/>
	<path class="st0" d="M-336.5,338.2l-7.8-7.8c-0.9-0.9-0.9-2.4,0-3.3l5.4-5.4c0.9-0.9,2.4-0.9,3.3,0l7.8,7.8c0.9,0.9,0.9,2.4,0,3.3
		l-5.4,5.4C-334.1,339.1-335.5,339.1-336.5,338.2z"/>
	<line class="st0" x1="-333.7" y1="323.3" x2="-318.7" y2="308.3"/>
	<line class="st0" x1="-330" y1="327.1" x2="-315" y2="312.1"/>
	<path class="st1" d="M-315.5,302.9l1.4-1.4c0.3-0.3,0.7-0.3,0.9,0l3.1,3.1"/>
</g>
</svg>
