<?xml version="1.0" encoding="utf-8"?>
<!-- Generator: Adobe Illustrator 19.1.0, SVG Export Plug-In . SVG Version: 6.00 Build 0)  -->
<svg version="1.1" id="Layer_1" xmlns="http://www.w3.org/2000/svg" xmlns:xlink="http://www.w3.org/1999/xlink" x="0px" y="0px"
	 viewBox="-361 273 68 68" style="enable-background:new -361 273 68 68;" xml:space="preserve">
<style type="text/css">
	.st0{fill:#FFFFFF;}
	.st1{fill:none;}
</style>
<g>
	<path class="st0" d="M-354.5,300.3c0.7,0,1.2,0.5,1.2,1.2v3.4c0,0.7-0.5,1.2-1.2,1.2h-2.1c-0.7,0-1.2-0.5-1.2-1.2v-3.4
		c0-0.7,0.5-1.2,1.2-1.2H-354.5 M-354.5,299.7h-2.1c-1,0-1.8,0.8-1.8,1.8v3.4c0,1,0.8,1.8,1.8,1.8h2.1c1,0,1.8-0.8,1.8-1.8v-3.4
		C-352.7,300.5-353.5,299.7-354.5,299.7L-354.5,299.7z"/>
	<g>
		<rect x="-304" y="327.7" class="st0" width="2.6" height="2.9"/>
	</g>
	<g>
		<rect x="-302" y="325.7" class="st0" width="3.9" height="13.3"/>
	</g>
	<g>
		<polygon class="st0" points="-295.6,339 -304.5,339 -304.5,341 -295.6,341 -295.6,339 		"/>
	</g>
	<g>
		<path class="st0" d="M-300,326.2h-2.6c-1,0-1.6-0.5-1.1-0.9l1.3-1l1.7-1.4c0.4-0.3,1-0.3,1.4,0l1.7,1.4l1.3,1
			c0.5,0.4-0.1,0.9-1.1,0.9H-300z"/>
	</g>
	<path class="st0" d="M-349.2,289.5l-1.1-1.7c0.2-0.1,4.3-2.9,2.1-6.7c-0.9-1.5-1-3-0.5-4.4c1-2.6,4.2-3.7,4.3-3.7l0.6,1.9
		c0,0-2.4,0.8-3.1,2.5c-0.3,0.8-0.2,1.7,0.4,2.7C-344,284.5-347.2,288.1-349.2,289.5z"/>
	<path class="st0" d="M-338,289.5l-1.1-1.7c0.2-0.1,4.3-2.9,2.1-6.7c-0.9-1.5-1-3-0.5-4.4c1-2.6,4.2-3.7,4.3-3.7l0.6,1.9
		c0,0-2.4,0.8-3.1,2.5c-0.3,0.8-0.2,1.7,0.4,2.7C-332.8,284.5-336,288.1-338,289.5z"/>
	<path class="st0" d="M-326.9,289.5l-1.1-1.7c0.2-0.1,4.3-2.9,2.1-6.7c-0.9-1.5-1-3-0.5-4.4c1-2.6,4.2-3.7,4.3-3.7l0.6,1.9
		c0,0-2.4,0.8-3.1,2.5c-0.3,0.8-0.2,1.7,0.4,2.7C-321.7,284.5-324.9,288.1-326.9,289.5z"/>
	<path class="st0" d="M-315.7,289.5l-1.1-1.7c0.2-0.1,4.3-2.9,2.1-6.7c-0.9-1.5-1-3-0.5-4.4c1-2.6,4.2-3.7,4.3-3.7l0.6,1.9
		c0,0-2.4,0.8-3.1,2.5c-0.3,0.8-0.2,1.7,0.4,2.7C-310.5,284.5-313.7,288.1-315.7,289.5z"/>
	<g>
		<rect x="-332.9" y="306.7" class="st1" width="2.9" height="19"/>
		<rect x="-328" y="299.7" class="st1" width="4.9" height="2"/>
		<rect x="-316.1" y="304.7" class="st1" width="4.9" height="2"/>
		<rect x="-339.8" y="304.7" class="st1" width="4.9" height="2"/>
		<rect x="-309.2" y="327.7" class="st1" width="3.5" height="3"/>
		<rect x="-339.8" y="299.7" class="st1" width="4.9" height="2"/>
		<rect x="-344.8" y="306.7" class="st1" width="2.9" height="19"/>
		<rect x="-356.4" y="327.7" class="st1" width="2.7" height="3"/>
		<rect x="-332.9" y="327.7" class="st1" width="2.9" height="3"/>
		<rect x="-321.1" y="327.7" class="st1" width="2.9" height="3"/>
		<rect x="-321.1" y="306.7" class="st1" width="2.9" height="19"/>
		<rect x="-328" y="304.7" class="st1" width="4.9" height="2"/>
		<rect x="-316.1" y="299.7" class="st1" width="4.9" height="2"/>
		<rect x="-344.8" y="327.7" class="st1" width="2.9" height="3"/>
		<path class="st0" d="M-356.4,330.7v-3h2.7v-2h-2.9c-1,0-1.8,0.8-1.8,1.8v3.4c0,1,0.8,1.8,1.8,1.8h2.9v-2H-356.4z"/>
		<rect x="-344.8" y="325.7" class="st0" width="2.9" height="2"/>
		<path class="st0" d="M-305.7,327.7v3h-3.5v2h3.7c1,0,1.8-0.8,1.8-1.8v-3.4c0-1-0.8-1.8-1.8-1.8h-3.7v2H-305.7z"/>
		<rect x="-332.9" y="325.7" class="st0" width="2.9" height="2"/>
		<rect x="-344.8" y="330.7" class="st0" width="2.9" height="2"/>
		<rect x="-321.1" y="330.7" class="st0" width="2.9" height="2"/>
		<rect x="-332.9" y="330.7" class="st0" width="2.9" height="2"/>
		<rect x="-321.1" y="325.7" class="st0" width="2.9" height="2"/>
		<rect x="-316.1" y="327.7" class="st1" width="4.9" height="3"/>
		<path class="st1" d="M-316.1,336.5c0,1.4,1.1,2.5,2.5,2.5c1.4,0,2.5-1.1,2.5-2.5v-3.8h-4.9V336.5z"/>
		<path class="st1" d="M-311.2,297.2c0-1.4-1.1-2.5-2.5-2.5c-1.4,0-2.5,1.1-2.5,2.5v2.5h4.9V297.2z"/>
		<path class="st0" d="M-316.1,297.2c0-1.4,1.1-2.5,2.5-2.5c1.4,0,2.5,1.1,2.5,2.5v2.5h2v-2.5c0-2.5-2-4.5-4.5-4.5s-4.5,2-4.5,4.5
			v2.5h2V297.2z"/>
		<path class="st0" d="M-311.2,336.5c0,1.4-1.1,2.5-2.5,2.5c-1.4,0-2.5-1.1-2.5-2.5v-3.8h-2v3.8c0,2.5,2,4.5,4.5,4.5s4.5-2,4.5-4.5
			v-3.8h-2V336.5z"/>
		<rect x="-311.2" y="306.7" class="st0" width="2" height="19"/>
		<rect x="-318.1" y="306.7" class="st0" width="2" height="19"/>
		<rect x="-311.2" y="327.7" class="st0" width="2" height="3"/>
		<rect x="-318.1" y="327.7" class="st0" width="2" height="3"/>
		<rect x="-311.2" y="330.7" class="st0" width="2" height="2"/>
		<rect x="-318.1" y="325.7" class="st0" width="2" height="2"/>
		<rect x="-311.2" y="325.7" class="st0" width="2" height="2"/>
		<rect x="-318.1" y="330.7" class="st0" width="2" height="2"/>
		<path class="st1" d="M-328,336.5c0,1.4,1.1,2.5,2.5,2.5c1.4,0,2.5-1.1,2.5-2.5v-3.8h-4.9V336.5z"/>
		<rect x="-328" y="327.7" class="st1" width="4.9" height="3"/>
		<rect x="-328" y="306.7" class="st1" width="4.9" height="19"/>
		<path class="st1" d="M-323.1,297.2c0-1.4-1.1-2.5-2.5-2.5c-1.4,0-2.5,1.1-2.5,2.5v2.5h4.9V297.2z"/>
		<rect x="-323.1" y="327.7" class="st0" width="2" height="3"/>
		<rect x="-330" y="327.7" class="st0" width="2" height="3"/>
		<rect x="-330" y="306.7" class="st0" width="2" height="19"/>
		<path class="st0" d="M-323.1,336.5c0,1.4-1.1,2.5-2.5,2.5c-1.4,0-2.5-1.1-2.5-2.5v-3.8h-2v3.8c0,2.5,2,4.5,4.5,4.5
			c2.5,0,4.5-2,4.5-4.5v-3.8h-2V336.5z"/>
		<rect x="-323.1" y="306.7" class="st0" width="2" height="19"/>
		<rect x="-323.1" y="325.7" class="st0" width="2" height="2"/>
		<rect x="-330" y="325.7" class="st0" width="2" height="2"/>
		<rect x="-323.1" y="330.7" class="st0" width="2" height="2"/>
		<rect x="-330" y="330.7" class="st0" width="2" height="2"/>
		<path class="st0" d="M-328,297.2c0-1.4,1.1-2.5,2.5-2.5c1.4,0,2.5,1.1,2.5,2.5v2.5h2v-2.5c0-2.5-2-4.5-4.5-4.5
			c-2.5,0-4.5,2-4.5,4.5v2.5h2V297.2z"/>
		<rect x="-351.7" y="299.7" class="st1" width="4.9" height="2"/>
		<rect x="-339.8" y="306.7" class="st1" width="4.9" height="19"/>
		<rect x="-339.8" y="327.7" class="st1" width="4.9" height="3"/>
		<path class="st1" d="M-339.8,336.5c0,1.4,1.1,2.5,2.5,2.5c1.4,0,2.5-1.1,2.5-2.5v-3.8h-4.9V336.5z"/>
		<path class="st1" d="M-334.9,297.2c0-1.4-1.1-2.5-2.5-2.5c-1.4,0-2.5,1.1-2.5,2.5v2.5h4.9V297.2z"/>
		<rect x="-351.7" y="304.7" class="st1" width="4.9" height="2"/>
		<path class="st0" d="M-334.9,336.5c0,1.4-1.1,2.5-2.5,2.5c-1.4,0-2.5-1.1-2.5-2.5v-3.8h-2v3.8c0,2.5,2,4.5,4.5,4.5h0
			c2.5,0,4.5-2,4.5-4.5v-3.8h-2V336.5z"/>
		<rect x="-334.9" y="306.7" class="st0" width="2" height="19"/>
		<rect x="-341.8" y="327.7" class="st0" width="2" height="3"/>
		<rect x="-334.9" y="327.7" class="st0" width="2" height="3"/>
		<rect x="-341.8" y="306.7" class="st0" width="2" height="19"/>
		<rect x="-334.9" y="330.7" class="st0" width="2" height="2"/>
		<rect x="-341.8" y="330.7" class="st0" width="2" height="2"/>
		<rect x="-334.9" y="325.7" class="st0" width="2" height="2"/>
		<rect x="-341.8" y="325.7" class="st0" width="2" height="2"/>
		<path class="st0" d="M-339.8,297.2c0-1.4,1.1-2.5,2.5-2.5c1.4,0,2.5,1.1,2.5,2.5v2.5h2v-2.5c0-2.5-2-4.5-4.5-4.5h0
			c-2.5,0-4.5,2-4.5,4.5v2.5h2V297.2z"/>
		<rect x="-356.4" y="301.7" class="st1" width="2.7" height="3"/>
		<rect x="-351.7" y="301.7" class="st1" width="4.9" height="3"/>
		<path class="st1" d="M-351.7,336.5c0,1.4,1.1,2.5,2.5,2.5c1.4,0,2.5-1.1,2.5-2.5v-3.8h-4.9V336.5z"/>
		<rect x="-351.7" y="306.7" class="st1" width="4.9" height="19"/>
		<rect x="-351.7" y="327.7" class="st1" width="4.9" height="3"/>
		<rect x="-339.8" y="301.7" class="st1" width="4.9" height="3"/>
		<rect x="-328" y="301.7" class="st1" width="4.9" height="3"/>
		<rect x="-332.9" y="301.7" class="st1" width="2.9" height="3"/>
		<rect x="-309.2" y="301.7" class="st1" width="3.5" height="3"/>
		<rect x="-321.1" y="301.7" class="st1" width="2.9" height="3"/>
		<rect x="-316.1" y="301.7" class="st1" width="4.9" height="3"/>
		<rect x="-318.1" y="301.7" class="st0" width="2" height="3"/>
		<rect x="-311.2" y="301.7" class="st0" width="2" height="3"/>
		<rect x="-323.1" y="301.7" class="st0" width="2" height="3"/>
		<rect x="-330" y="301.7" class="st0" width="2" height="3"/>
		<rect x="-344.8" y="301.7" class="st1" width="2.9" height="3"/>
		<rect x="-341.8" y="301.7" class="st0" width="2" height="3"/>
		<rect x="-334.9" y="301.7" class="st0" width="2" height="3"/>
		<path class="st1" d="M-346.8,297.2c0-1.4-1.1-2.5-2.5-2.5c-1.4,0-2.5,1.1-2.5,2.5v2.5h4.9V297.2z"/>
		<rect x="-332.9" y="299.7" class="st0" width="2.9" height="2"/>
		<path class="st0" d="M-305.7,301.7v3h-3.5v2h3.7c1,0,1.8-0.8,1.8-1.8v-3.4c0-1-0.8-1.8-1.8-1.8h-3.7v2H-305.7z"/>
		<rect x="-321.1" y="304.7" class="st0" width="2.9" height="2"/>
		<rect x="-321.1" y="299.7" class="st0" width="2.9" height="2"/>
		<rect x="-318.1" y="299.7" class="st0" width="2" height="2"/>
		<rect x="-318.1" y="304.7" class="st0" width="2" height="2"/>
		<rect x="-311.2" y="304.7" class="st0" width="2" height="2"/>
		<rect x="-311.2" y="299.7" class="st0" width="2" height="2"/>
		<rect x="-332.9" y="304.7" class="st0" width="2.9" height="2"/>
		<rect x="-323.1" y="299.7" class="st0" width="2" height="2"/>
		<rect x="-330" y="304.7" class="st0" width="2" height="2"/>
		<rect x="-323.1" y="304.7" class="st0" width="2" height="2"/>
		<rect x="-330" y="299.7" class="st0" width="2" height="2"/>
		<rect x="-344.8" y="299.7" class="st0" width="2.9" height="2"/>
		<rect x="-344.8" y="304.7" class="st0" width="2.9" height="2"/>
		<rect x="-341.8" y="299.7" class="st0" width="2" height="2"/>
		<rect x="-334.9" y="299.7" class="st0" width="2" height="2"/>
		<rect x="-334.9" y="304.7" class="st0" width="2" height="2"/>
		<rect x="-341.8" y="304.7" class="st0" width="2" height="2"/>
		<path class="st0" d="M-356.4,304.7v-3h2.7v-2h-2.9c-1,0-1.8,0.8-1.8,1.8v3.4c0,1,0.8,1.8,1.8,1.8h2.9v-2H-356.4z"/>
		<rect x="-353.7" y="301.7" class="st0" width="2" height="3"/>
		<rect x="-353.7" y="327.7" class="st0" width="2" height="3"/>
		<path class="st0" d="M-346.8,336.5c0,1.4-1.1,2.5-2.5,2.5c-1.4,0-2.5-1.1-2.5-2.5v-3.8h-2v3.8c0,2.5,2,4.5,4.5,4.5h0
			c2.5,0,4.5-2,4.5-4.5v-3.8h-2V336.5z"/>
		<rect x="-353.7" y="306.7" class="st0" width="2" height="19"/>
		<rect x="-346.8" y="327.7" class="st0" width="2" height="3"/>
		<rect x="-346.8" y="306.7" class="st0" width="2" height="19"/>
		<rect x="-353.7" y="325.7" class="st0" width="2" height="2"/>
		<rect x="-353.7" y="330.7" class="st0" width="2" height="2"/>
		<rect x="-346.8" y="325.7" class="st0" width="2" height="2"/>
		<rect x="-346.8" y="330.7" class="st0" width="2" height="2"/>
		<path class="st0" d="M-351.7,297.2c0-1.4,1.1-2.5,2.5-2.5c1.4,0,2.5,1.1,2.5,2.5v2.5h2v-2.5c0-2.5-2-4.5-4.5-4.5h0
			c-2.5,0-4.5,2-4.5,4.5v2.5h2V297.2z"/>
		<rect x="-346.8" y="301.7" class="st0" width="2" height="3"/>
		<rect x="-353.7" y="299.7" class="st0" width="2" height="2"/>
		<rect x="-353.7" y="304.7" class="st0" width="2" height="2"/>
		<rect x="-346.8" y="304.7" class="st0" width="2" height="2"/>
		<rect x="-346.8" y="299.7" class="st0" width="2" height="2"/>
	</g>
</g>
</svg>
