<?xml version="1.0" encoding="utf-8"?>
<!-- Generator: Adobe Illustrator 16.0.0, SVG Export Plug-In . SVG Version: 6.00 Build 0)  -->
<!DOCTYPE svg PUBLIC "-//W3C//DTD SVG 1.1//EN" "http://www.w3.org/Graphics/SVG/1.1/DTD/svg11.dtd">
<svg version="1.1" id="Layer_1" xmlns="http://www.w3.org/2000/svg" xmlns:xlink="http://www.w3.org/1999/xlink" x="0px" y="0px"
	 width="40px" height="40px" viewBox="0 0 40 40" enable-background="new 0 0 40 40" xml:space="preserve">
<g>
	
		<rect x="7.215" y="1.661" fill="none" stroke="#FFFFFF" stroke-linecap="round" stroke-linejoin="round" stroke-miterlimit="10" width="25.473" height="36.679"/>
	
		<circle fill="none" stroke="#FFFFFF" stroke-linecap="round" stroke-linejoin="round" stroke-miterlimit="10" cx="20.048" cy="21.676" r="8.523"/>
	<path fill="none" stroke="#FFFFFF" stroke-linecap="round" stroke-linejoin="round" stroke-miterlimit="10" d="M20.048,15.738
		c-2.777,0-5.076,1.916-5.746,4.405h2.683v2.97h-2.683c0.67,2.586,2.97,4.404,5.746,4.404c3.254,0,5.938-2.68,5.938-5.936
		C25.891,18.418,23.302,15.738,20.048,15.738z"/>
	<circle fill="#FFFFFF" cx="11.429" cy="5.395" r="1.245"/>
	<circle fill="#FFFFFF" cx="16.121" cy="5.395" r="1.245"/>
	<polygon fill="none" stroke="#FFFFFF" stroke-linecap="round" stroke-linejoin="round" stroke-miterlimit="10" points="
		30.103,7.31 21.389,7.31 21.389,3.959 25.505,3.959 30.103,3.959 	"/>
	
		<line fill="none" stroke="#FFFFFF" stroke-linecap="round" stroke-linejoin="round" stroke-miterlimit="10" x1="25.505" y1="7.31" x2="25.505" y2="3.959"/>
	
		<line fill="none" stroke="#FFFFFF" stroke-linecap="round" stroke-linejoin="round" stroke-miterlimit="10" x1="7.215" y1="9.513" x2="32.785" y2="9.513"/>
</g>
</svg>
