<?xml version="1.0" encoding="utf-8"?>
<!-- Generator: Adobe Illustrator 16.0.0, SVG Export Plug-In . SVG Version: 6.00 Build 0)  -->
<!DOCTYPE svg PUBLIC "-//W3C//DTD SVG 1.1//EN" "http://www.w3.org/Graphics/SVG/1.1/DTD/svg11.dtd">
<svg class="unit-details-feature__icon" version="1.1" id="Layer_1" xmlns="http://www.w3.org/2000/svg" xmlns:xlink="http://www.w3.org/1999/xlink" x="0px" y="0px"
viewBox="0 0 68 68" style="enable-background:new 0 0 68 68;" xml:space="preserve">
<style type="text/css">
.laundry-st0{fill:#8B93A1;}
</style>
<g>
<g>
<path class="laundry-st0" d="M56.9,68H11.1c-0.6,0-1-0.4-1-1V1c0-0.6,0.4-1,1-1h45.8c0.6,0,1,0.4,1,1v66C57.9,67.6,57.5,68,56.9,68z
M12.1,66h43.8V2H12.1V66z"/>
</g>
<g>
<path class="laundry-st0" d="M34.2,53.4c-9,0-16.3-7.3-16.3-16.3c0-9,7.3-16.3,16.3-16.3S50.5,28,50.5,37C50.5,46,43.2,53.4,34.2,53.4z
M34.2,22.7c-7.9,0-14.3,6.4-14.3,14.3s6.4,14.3,14.3,14.3S48.5,44.9,48.5,37S42.1,22.7,34.2,22.7z"/>
</g>
<g>
<path class="laundry-st0" d="M34.2,48.5c-5.4,0-10-3.5-11.3-8.7c-0.1-0.3,0-0.6,0.2-0.9c0.2-0.2,0.5-0.4,0.8-0.4h3.8v-3.3h-3.8
c-0.3,0-0.6-0.1-0.8-0.4c-0.2-0.2-0.3-0.6-0.2-0.9c1.4-5.1,6-8.7,11.3-8.7c6.3,0,11.5,5.2,11.7,11.5
C45.9,43.3,40.6,48.5,34.2,48.5z M25.2,40.6c1.5,3.6,4.9,5.9,9,5.9c5.3,0,9.7-4.3,9.7-9.7c-0.2-5.2-4.5-9.5-9.7-9.5
c-3.9,0-7.4,2.4-8.9,5.9h3.4c0.6,0,1,0.4,1,1v5.3c0,0.6-0.4,1-1,1H25.2z"/>
</g>
<g>
<circle class="laundry-st0" cx="18.7" cy="7.7" r="2.2"/>
</g>
<g>
<circle class="laundry-st0" cx="27.1" cy="7.7" r="2.2"/>
</g>
<g>
<path class="laundry-st0" d="M52.3,12.2H36.6c-0.6,0-1-0.4-1-1v-6c0-0.6,0.4-1,1-1h15.7c0.6,0,1,0.4,1,1v6C53.3,11.7,52.8,12.2,52.3,12.2z
M37.6,10.2h13.7v-4H37.6V10.2z"/>
</g>
<g>
<path class="laundry-st0" d="M44,12.2c-0.6,0-1-0.4-1-1v-6c0-0.6,0.4-1,1-1s1,0.4,1,1v6C45,11.7,44.5,12.2,44,12.2z"/>
</g>
<g>
<path class="laundry-st0" d="M56.5,16.1H11.5c-0.5,0-1-0.4-1-1s0.4-1,1-1h44.9c0.5,0,1,0.4,1,1S57,16.1,56.5,16.1z"/>
</g>
</g>
</svg>
