<?xml version="1.0" encoding="utf-8"?>
<!-- Generator: Adobe Illustrator 16.0.0, SVG Export Plug-In . SVG Version: 6.00 Build 0)  -->
<!DOCTYPE svg PUBLIC "-//W3C//DTD SVG 1.1//EN" "http://www.w3.org/Graphics/SVG/1.1/DTD/svg11.dtd">
<svg version="1.1" id="Layer_1" xmlns="http://www.w3.org/2000/svg" xmlns:xlink="http://www.w3.org/1999/xlink" x="0px" y="0px"
	 width="40px" height="40px" viewBox="180 130 40 40" enable-background="new 180 130 40 40" xml:space="preserve">
<g>
	<g>
		<path fill="#FFFFFF" d="M212.423,131.177c3.525,0,6.343,2.825,6.343,6.353v25.002c0,3.469-2.817,6.294-6.343,6.294h-24.904
			c-3.525,0-6.345-2.824-6.345-6.352v-24.945c0-3.527,2.819-6.353,6.345-6.353L212.423,131.177 M212.423,130h-24.904
			c-4.171,0-7.519,3.353-7.519,7.528v25.002c0,4.117,3.349,7.47,7.519,7.47h24.962c4.111,0,7.52-3.354,7.52-7.527v-24.945
			C219.941,133.354,216.593,130,212.423,130L212.423,130z"/>
	</g>
	<path fill="transparent" stroke="#FFFFFF" class="hover-fill" stroke-miterlimit="10" d="M189.868,137.706c-1.763,0-3.231,1.47-3.231,3.237
		c0,1.763,1.469,3.233,3.231,3.233c1.761,0,3.23-1.47,3.23-3.233C193.099,139.176,191.629,137.706,189.868,137.706z
		 M193.099,146.825h-6.462v16.588h6.404v-16.588H193.099z M213.305,154.002c0-6.883-4.171-8.059-6.462-8.059
		s-3.643,0.822-5.462,2.882v-1.94h-5.521v16.589h5.521v-9.06c0-2,0.821-3.94,2.937-3.94s2.585,1.94,2.585,3.881v9.119h6.403
		L213.305,154.002L213.305,154.002z"/>
</g>
</svg>
