<?xml version="1.0" encoding="utf-8"?>
<!-- Generator: Adobe Illustrator 19.1.0, SVG Export Plug-In . SVG Version: 6.00 Build 0)  -->
<svg version="1.1" id="Layer_1" xmlns="http://www.w3.org/2000/svg" xmlns:xlink="http://www.w3.org/1999/xlink" x="0px" y="0px"
	 viewBox="-361 273 68 68" style="enable-background:new -361 273 68 68;" xml:space="preserve">
<style type="text/css">
	.st0{fill:#FFFFFF;}
	.st1{fill:none;stroke:#FFFFFF;stroke-width:2;stroke-miterlimit:10;}
	.st2{fill:none;stroke:#FFFFFF;stroke-width:0.9102;stroke-linecap:square;stroke-miterlimit:10;}
</style>
<g>
	<g>
		<path class="st0" d="M-327,275.6c17.3,0,31.4,14.1,31.4,31.4s-14.1,31.4-31.4,31.4s-31.4-14.1-31.4-31.4S-344.3,275.6-327,275.6
			 M-327,273.6c-18.4,0-33.4,14.9-33.4,33.4s14.9,33.4,33.4,33.4s33.4-14.9,33.4-33.4S-308.6,273.6-327,273.6L-327,273.6z"/>
	</g>
	<line class="st1" x1="-304" y1="283.9" x2="-350.1" y2="329.9"/>
	<g>
		<path class="st0" d="M-345.6,292.9l32.4,32.4l-1.9,1.9l-32.4-32.4L-345.6,292.9 M-345.6,290.1l-4.7,4.7l35.2,35.2l4.7-4.7
			L-345.6,290.1L-345.6,290.1z"/>
	</g>
	
		<rect x="-349.9" y="295.1" transform="matrix(0.7071 0.7071 -0.7071 0.7071 110.1849 329.7664)" class="st0" width="13.8" height="5.5"/>
	<g>
		<path class="st0" d="M-309.4,322.8l-0.6-0.8c0.1-0.1,2.1-1.5,0.9-3.4c-0.5-0.8-0.6-1.5-0.3-2.2c0.4-1.3,2-1.9,2.1-1.9l0.4,0.9
			c0,0-1.2,0.5-1.5,1.3c-0.1,0.4-0.1,0.8,0.3,1.3C-306.8,320.2-308.4,322.1-309.4,322.8z"/>
		<path class="st0" d="M-305.6,317.9l-0.6-0.8c0.1-0.1,2.1-1.5,0.9-3.4c-0.5-0.8-0.6-1.5-0.3-2.2c0.4-1.3,2-1.9,2.1-1.9l0.4,0.9
			c0,0-1.2,0.5-1.5,1.3c-0.1,0.4-0.1,0.8,0.3,1.3C-303,315.3-304.6,317.2-305.6,317.9z"/>
	</g>
	<path class="st2" d="M-311.1,325.3c1,1,0.8,2.7-0.3,3.8c-1.1,1.1-2.8,1.3-3.8,0.3"/>
</g>
</svg>
