<?xml version="1.0" encoding="utf-8"?>
<!-- Generator: Adobe Illustrator 19.1.0, SVG Export Plug-In . SVG Version: 6.00 Build 0)  -->
<svg version="1.1" id="Layer_1" xmlns="http://www.w3.org/2000/svg" xmlns:xlink="http://www.w3.org/1999/xlink" x="0px" y="0px"
	 viewBox="-361 273 68 68" style="enable-background:new -361 273 68 68;" xml:space="preserve">
<style type="text/css">
	.st0{fill:#FFFFFF;}
	.st1{fill:none;stroke:#FFFFFF;stroke-width:1.9412;stroke-miterlimit:10;}
</style>
<g>
	<g>
		<path class="st0" d="M-344.9,310.4c3.6,0,6.5,2.9,6.5,6.5s-2.9,6.5-6.5,6.5s-6.5-2.9-6.5-6.5S-348.5,310.4-344.9,310.4
			 M-344.9,308.4c-4.7,0-8.4,3.8-8.4,8.4s3.8,8.4,8.4,8.4s8.4-3.8,8.4-8.4S-340.3,308.4-344.9,308.4L-344.9,308.4z"/>
	</g>
	<g>
		<path class="st0" d="M-311,310.4c3.6,0,6.5,2.9,6.5,6.5s-2.9,6.5-6.5,6.5s-6.5-2.9-6.5-6.5S-314.6,310.4-311,310.4 M-311,308.4
			c-4.7,0-8.4,3.8-8.4,8.4s3.8,8.4,8.4,8.4s8.4-3.8,8.4-8.4S-306.3,308.4-311,308.4L-311,308.4z"/>
	</g>
	<path class="st1" d="M-349,301.3v-11.1c0,0,0.3-1.8,2.6-1.5h23c0.5,0,0.9,0.2,1.2,0.6l10.4,12"/>
	<line class="st1" x1="-318.2" y1="317.4" x2="-337.9" y2="317.4"/>
	<path class="st1" d="M-352.9,317.4c-3,0-7.1-2.7-7.1-6.1v-4c0-3.3,2.5-6.1,5.5-6.1h55c3,0,5.5,2.7,5.5,6.1v4c0,3.3-2.5,6.1-5.5,6.1
		h-3.6"/>
</g>
</svg>
