<?xml version="1.0" encoding="utf-8"?>
<!-- Generator: Adobe Illustrator 16.0.0, SVG Export Plug-In . SVG Version: 6.00 Build 0)  -->
<!DOCTYPE svg PUBLIC "-//W3C//DTD SVG 1.1//EN" "http://www.w3.org/Graphics/SVG/1.1/DTD/svg11.dtd">
<svg version="1.1" id="Layer_1" xmlns="http://www.w3.org/2000/svg" xmlns:xlink="http://www.w3.org/1999/xlink" x="0px" y="0px"
	 width="40px" height="40px" viewBox="0 0 40 40" enable-background="new 0 0 40 40" xml:space="preserve">
<g>
	<path fill="none" stroke="#FFFFFF" stroke-linecap="round" stroke-linejoin="round" stroke-miterlimit="10" d="M30.671,16.162
		c0.385-2.113,1.731-3.46,3.654-3.747c1.729-0.193,3.46,0.768,4.227,2.498c0.673,1.442,0.481,3.558-1.441,5.094
		c1.828,1.539,2.403,3.363,1.25,5.479c-0.768,1.537-2.209,2.209-3.94,2.114c-2.018-0.193-3.266-1.441-3.749-3.363
		c-7.11,0-14.221,0-21.333,0c-0.577,2.114-1.922,3.363-4.229,3.363c-1.826,0-3.075-0.961-3.747-2.596
		c-0.769-2.018-0.096-3.652,1.537-4.998c-0.767-0.577-1.345-1.248-1.633-2.112c-0.77-2.309,0.577-4.711,2.883-5.288
		c2.306-0.577,4.613,0.867,5.093,3.173c0.097,0.288,0.097,0.384,0.481,0.384c6.822,0,13.646,0,20.566,0
		C30.479,16.162,30.576,16.162,30.671,16.162z"/>
</g>
</svg>
