<?xml version="1.0" encoding="utf-8"?>
<!-- Generator: Adobe Illustrator 16.0.0, SVG Export Plug-In . SVG Version: 6.00 Build 0)  -->
<!DOCTYPE svg PUBLIC "-//W3C//DTD SVG 1.1//EN" "http://www.w3.org/Graphics/SVG/1.1/DTD/svg11.dtd">
<svg class="unit-details-feature__icon" version="1.1" id="Layer_1" xmlns="http://www.w3.org/2000/svg" xmlns:xlink="http://www.w3.org/1999/xlink" x="0px" y="0px"
viewBox="0 -0.7 68.7 68.7" style="enable-background:new 0 -0.7 68.7 68.7;" xml:space="preserve">
<style type="text/css">
.pets-st0{fill:#8B93A1;}
</style>
<g>
<g>
<path class="pets-st0" d="M60,47.5c-0.2,0-0.4,0-0.6,0c-3.6-0.3-6.1-2.4-7.2-5.9H16.5c-1.3,3.8-4.1,5.9-8.1,5.9c-3.5,0-6.1-1.8-7.4-5.1
c-1.3-3.4-0.6-6.4,2.1-9.1c-1.1-1-1.8-2.1-2.3-3.4c-0.7-2.2-0.5-4.5,0.6-6.5c1.1-2,3-3.4,5.2-4c2.2-0.6,4.5-0.2,6.4,1
c1.9,1.2,3.2,3,3.6,5.1h35.6c0.9-3.6,3.4-6,7-6.5c3.6-0.4,6.9,1.6,8.4,4.9c1.2,2.6,1,6.4-1.9,9.3c3,3,3.5,6.4,1.6,10
C65.8,46,63.3,47.5,60,47.5z M15.8,39.6h37.1c0.5,0,0.9,0.3,1,0.8c0.8,3.1,2.7,4.8,5.6,5.1c1.9,0.1,4.5-0.4,5.9-3.1
c1.7-3.1,1.1-5.8-1.9-8.3c-0.2-0.2-0.4-0.5-0.4-0.8c0-0.3,0.1-0.6,0.4-0.8c2.9-2.3,3.2-5.5,2.2-7.7c-1.1-2.6-3.7-4.1-6.3-3.8
c-2.9,0.4-4.9,2.5-5.5,5.7c-0.1,0.5-0.5,0.8-1,0.8H16.5c-1.1,0-1.5-0.5-1.8-1.3l0-0.1c0,0,0-0.1,0-0.1c-0.3-1.7-1.3-3.1-2.8-4
c-1.5-0.9-3.2-1.2-4.9-0.8c-1.7,0.4-3.1,1.5-3.9,3c-0.8,1.5-1,3.3-0.4,4.9c0.4,1.2,1.2,2.2,2.5,3.2c0.2,0.2,0.4,0.5,0.4,0.8
S5.5,33.8,5.2,34c-2.7,2.3-3.5,4.7-2.4,7.6c1.1,2.6,2.9,3.9,5.6,3.9c3.4,0,5.5-1.7,6.4-5.1C14.9,39.9,15.3,39.6,15.8,39.6z"/>
</g>
</g>
</svg>
