<?xml version="1.0" encoding="utf-8"?>
<!-- Generator: Adobe Illustrator 19.1.0, SVG Export Plug-In . SVG Version: 6.00 Build 0)  -->
<svg version="1.1" id="Layer_1" xmlns="http://www.w3.org/2000/svg" xmlns:xlink="http://www.w3.org/1999/xlink" x="0px" y="0px"
	 viewBox="-361 273 68 68" style="enable-background:new -361 273 68 68;" xml:space="preserve">
<style type="text/css">
	.st0{fill:none;stroke:#FFFFFF;stroke-width:2;stroke-miterlimit:10;}
	.st1{fill:#FFFFFF;}
</style>
<g>
	<path class="st0" d="M-323.2,307c0,2.1-1.7,3.8-3.8,3.8s-3.8-1.7-3.8-3.8"/>
	<polyline class="st0" points="-324.3,309.6 -323.2,336.1 -327,339.6 -330.8,336.1 -329.7,309.6 	"/>
	<g>
		<path class="st1" d="M-327,276.4c6.9,0,12.5,5.6,12.5,12.5c0,6.9-5.6,12.5-12.5,12.5s-12.5-5.6-12.5-12.5
			C-339.5,282-333.9,276.4-327,276.4 M-327,274.4c-8,0-14.5,6.5-14.5,14.5c0,8,6.5,14.5,14.5,14.5s14.5-6.5,14.5-14.5
			C-312.5,280.9-319,274.4-327,274.4L-327,274.4z"/>
	</g>
	<path class="st0" d="M-337,305.5c0,0-13.1-2.2-14.3,6.2c-1.2,8.4-1.3,27.9-1.3,27.9"/>
	<path class="st0" d="M-317,305.5c0,0,13.1-2.2,14.3,6.2c1.2,8.4,1.3,27.9,1.3,27.9"/>
</g>
</svg>
