<?xml version="1.0" encoding="utf-8"?>
<!-- Generator: Adobe Illustrator 16.0.0, SVG Export Plug-In . SVG Version: 6.00 Build 0)  -->
<!DOCTYPE svg PUBLIC "-//W3C//DTD SVG 1.1//EN" "http://www.w3.org/Graphics/SVG/1.1/DTD/svg11.dtd">
<svg version="1.1" id="Layer_1" xmlns="http://www.w3.org/2000/svg" xmlns:xlink="http://www.w3.org/1999/xlink" x="0px" y="0px"
	 width="40px" height="40px" viewBox="0 0 40 40" enable-background="new 0 0 40 40" xml:space="preserve">
<g>
	<path fill="#FFFFFF" d="M15.271,9.512c0.173,0,0.345-0.087,0.517-0.172c0.259-0.171,0.344-0.343,0.429-0.516
		c0-0.087,0.087-0.087,0.087-0.171c0.085-0.085,0.17-0.085,0.259,0c0.084,0.171,0.17,0.258,0.258,0.43
		c0.171,0.429,0.258,0.772,0.344,1.203c0,0.257,0,0.43-0.086,0.603c-0.258,0.602-0.687,1.203-1.289,1.633
		c-0.171,0.172-0.43,0.259-0.687,0.345h-0.086c0,0,0,0-0.086,0c0-0.086,0-0.259,0.086-0.345c0.086-0.343,0-0.773-0.259-1.116
		c-0.171-0.26-0.345-0.603-0.516-0.863c-0.171-0.257-0.258-0.514-0.258-0.771c0-0.259,0.085-0.516,0.171-0.773c0,0,0,0,0-0.085l0,0
		c-0.085,0-0.258,0.085-0.345,0.085c-0.687,0.171-1.116,0.6-1.289,1.116c-0.084,0.259-0.084,0.518,0,0.861
		c0.085,0.431,0.172,0.86,0.344,1.289c0,0,0,0,0,0.087c-0.085,0-0.171-0.087-0.259-0.087c-0.344-0.172-0.602-0.429-0.859-0.687
		c-0.258-0.344-0.345-0.773-0.345-1.117c0-0.602,0.258-1.204,0.688-1.719c0.259-0.258,0.516-0.602,0.688-0.858
		c0.258-0.345,0.43-0.773,0.516-1.204c0.084-0.344,0.084-0.602,0.17-0.946c0-0.086,0-0.086,0-0.171
		c0.087-0.086,0.174-0.171,0.259-0.086c0.086,0.086,0.259,0.17,0.345,0.257c0.6,0.603,0.946,1.29,1.116,1.978
		c0.087,0.43,0.087,0.946,0,1.376C15.358,9.255,15.271,9.425,15.271,9.512z"/>
	<path fill="#FFFFFF" d="M27.822,8.48c-1.547,1.462-3.18,2.924-4.727,4.47c0,0,0,0-0.088-0.086c0.604-1.116,1.291-2.321,1.979-3.524
		c-0.775,0-1.461,0-2.236,0c0.086-0.171,0.172-0.257,0.172-0.343c0.859-1.117,1.805-2.234,2.666-3.354
		c0.086-0.171,0.342-0.257,0.516-0.257c0.602,0,1.203,0,1.889,0c-0.857,0.946-1.543,1.892-2.404,2.836c0.773,0,1.459,0,2.148,0
		C27.822,8.395,27.822,8.48,27.822,8.48z"/>
	
		<rect x="5.558" y="1.948" fill="none" stroke="#FFFFFF" stroke-linecap="round" stroke-miterlimit="10" width="28.883" height="36.105"/>
	
		<line fill="none" stroke="#FFFFFF" stroke-linecap="round" stroke-miterlimit="10" x1="8.653" y1="19.054" x2="22.922" y2="19.054"/>
	
		<line fill="none" stroke="#FFFFFF" stroke-linecap="round" stroke-miterlimit="10" x1="25.416" y1="19.054" x2="30.229" y2="19.054"/>
	
		<line fill="none" stroke="#FFFFFF" stroke-linecap="round" stroke-miterlimit="10" x1="8.653" y1="23.354" x2="22.922" y2="23.354"/>
	
		<line fill="none" stroke="#FFFFFF" stroke-linecap="round" stroke-miterlimit="10" x1="25.416" y1="23.354" x2="30.229" y2="23.354"/>
	
		<line fill="none" stroke="#FFFFFF" stroke-linecap="round" stroke-miterlimit="10" x1="8.653" y1="27.736" x2="22.922" y2="27.736"/>
	
		<line fill="none" stroke="#FFFFFF" stroke-linecap="round" stroke-miterlimit="10" x1="25.416" y1="27.736" x2="30.229" y2="27.736"/>
	<path fill="#FFFFFF" stroke="#FFFFFF" stroke-width="0.25" stroke-miterlimit="10" d="M27.479,34.787v-0.43
		c-0.258,0-0.516-0.086-0.688-0.174l0.086-0.258c0.17,0.088,0.344,0.17,0.602,0.17c0.344,0,0.514-0.17,0.514-0.428
		c0-0.26-0.17-0.346-0.514-0.516c-0.432-0.172-0.688-0.344-0.688-0.775c0-0.346,0.26-0.602,0.688-0.688v-0.43h0.258v0.43
		c0.258,0,0.43,0.084,0.604,0.172l-0.086,0.258c-0.088-0.088-0.262-0.17-0.518-0.17c-0.344,0-0.43,0.17-0.43,0.342
		c0,0.262,0.172,0.346,0.516,0.518c0.432,0.17,0.688,0.43,0.688,0.773s-0.258,0.688-0.688,0.775v0.43H27.479L27.479,34.787z"/>
</g>
</svg>
