<?xml version="1.0" encoding="utf-8"?>
<!-- Generator: Adobe Illustrator 16.0.0, SVG Export Plug-In . SVG Version: 6.00 Build 0)  -->
<!DOCTYPE svg PUBLIC "-//W3C//DTD SVG 1.1//EN" "http://www.w3.org/Graphics/SVG/1.1/DTD/svg11.dtd">
<svg title="Utilities" class="unit-details-feature__icon" version="1.1" id="Layer_1" xmlns="http://www.w3.org/2000/svg" xmlns:xlink="http://www.w3.org/1999/xlink" x="0px" y="0px"
viewBox="0 0 68 68" style="enable-background:new 0 0 68 68;" xml:space="preserve">
<style type="text/css">
.utilities-st0{fill:#8B93A1;}
</style>
<g>
<g>
<path class="utilities-st0" d="M25.4,14.6c0.3,0,0.6-0.2,0.9-0.3c0.5-0.3,0.6-0.6,0.8-0.9c0-0.2,0.2-0.2,0.2-0.3c0.2-0.2,0.3-0.2,0.5,0
c0.2,0.3,0.3,0.5,0.5,0.8c0.3,0.8,0.5,1.4,0.6,2.2c0,0.5,0,0.8-0.2,1.1c-0.5,1.1-1.3,2.2-2.4,3c-0.3,0.3-0.8,0.5-1.3,0.6h-0.2
c0,0,0,0-0.2,0c0-0.2,0-0.5,0.2-0.6c0.2-0.6,0-1.4-0.5-2c-0.3-0.5-0.6-1.1-0.9-1.6C23.2,16,23,15.6,23,15.1c0-0.5,0.2-0.9,0.3-1.4
c0,0,0,0,0-0.2l0,0c-0.2,0-0.5,0.2-0.6,0.2c-1.3,0.3-2,1.1-2.4,2c-0.2,0.5-0.2,0.9,0,1.6c0.2,0.8,0.3,1.6,0.6,2.4c0,0,0,0,0,0.2
c-0.2,0-0.3-0.2-0.5-0.2c-0.6-0.3-1.1-0.8-1.6-1.3c-0.5-0.6-0.6-1.4-0.6-2c0-1.1,0.5-2.2,1.3-3.1c0.5-0.5,0.9-1.1,1.3-1.6
c0.5-0.6,0.8-1.4,0.9-2.2c0.2-0.6,0.2-1.1,0.3-1.7c0-0.2,0-0.2,0-0.3c0.2-0.2,0.3-0.3,0.5-0.2c0.2,0.2,0.5,0.3,0.6,0.5
c1.1,1.1,1.7,2.4,2,3.6c0.2,0.8,0.2,1.7,0,2.5C25.5,14.1,25.4,14.5,25.4,14.6z"/>
</g>
<g>
<path class="utilities-st0" d="M48.3,12.7c-2.8,2.7-5.8,5.3-8.6,8.2c0,0,0,0-0.2-0.2c1.1-2,2.4-4.2,3.6-6.4c-1.4,0-2.7,0-4.1,0
c0.2-0.3,0.3-0.5,0.3-0.6c1.6-2,3.3-4.1,4.9-6.1c0.2-0.3,0.6-0.5,0.9-0.5c1.1,0,2.2,0,3.5,0c-1.6,1.7-2.8,3.5-4.4,5.2
c1.4,0,2.7,0,3.9,0C48.3,12.6,48.3,12.7,48.3,12.7z"/>
</g>
<g>
<path class="utilities-st0" d="M61.2,67.6H6.8V0h54.4V67.6z M8.4,66h51.2V1.6H8.4V66z"/>
</g>
<g>
<path class="utilities-st0" d="M39.3,32.8H13.3c-0.4,0-0.8-0.4-0.8-0.8s0.4-0.8,0.8-0.8h26.1c0.4,0,0.8,0.4,0.8,0.8S39.8,32.8,39.3,32.8z"/>
</g>
<g>
<path class="utilities-st0" d="M52.7,32.8h-8.8c-0.4,0-0.8-0.4-0.8-0.8s0.4-0.8,0.8-0.8h8.8c0.4,0,0.8,0.4,0.8,0.8S53.1,32.8,52.7,32.8z"/>
</g>
<g>
<path class="utilities-st0" d="M39.3,40.7H13.3c-0.4,0-0.8-0.4-0.8-0.8s0.4-0.8,0.8-0.8h26.1c0.4,0,0.8,0.4,0.8,0.8S39.8,40.7,39.3,40.7z"/>
</g>
<g>
<path class="utilities-st0" d="M52.7,40.7h-8.8c-0.4,0-0.8-0.4-0.8-0.8s0.4-0.8,0.8-0.8h8.8c0.4,0,0.8,0.4,0.8,0.8S53.1,40.7,52.7,40.7z"/>
</g>
<g>
<path class="utilities-st0" d="M39.3,48.7H13.3c-0.4,0-0.8-0.4-0.8-0.8s0.4-0.8,0.8-0.8h26.1c0.4,0,0.8,0.4,0.8,0.8S39.8,48.7,39.3,48.7z"/>
</g>
<g>
<path class="utilities-st0" d="M52.7,48.7h-8.8c-0.4,0-0.8-0.4-0.8-0.8s0.4-0.8,0.8-0.8h8.8c0.4,0,0.8,0.4,0.8,0.8S53.1,48.7,52.7,48.7z"/>
</g>
<g>
<path class="utilities-st0" d="M47.7,60.8V60c-0.5,0-0.9-0.2-1.3-0.3l0.2-0.5c0.3,0.2,0.6,0.3,1.1,0.3c0.6,0,0.9-0.3,0.9-0.8
s-0.3-0.6-0.9-0.9c-0.8-0.3-1.3-0.6-1.3-1.4c0-0.6,0.5-1.1,1.3-1.3v-0.8h0.5v0.8c0.5,0,0.8,0.2,1.1,0.3l-0.2,0.5
c-0.2-0.2-0.5-0.3-0.9-0.3c-0.6,0-0.8,0.3-0.8,0.6c0,0.5,0.3,0.6,0.9,0.9c0.8,0.3,1.3,0.8,1.3,1.4s-0.5,1.3-1.3,1.4v0.8L47.7,60.8
L47.7,60.8z"/>
<path class="utilities-st0" d="M48.5,61h-1v-0.8c-0.5,0-1-0.2-1.1-0.3l-0.2-0.1l0.3-0.8l0.2,0.1c0.3,0.2,0.6,0.3,1,0.3
c0.3,0,0.7-0.1,0.7-0.6c0-0.3-0.2-0.4-0.8-0.8c-0.7-0.3-1.4-0.6-1.4-1.6c0-0.7,0.5-1.2,1.3-1.4v-0.8h0.9V55c0.4,0,0.7,0.2,1,0.3
l0.2,0.1l-0.3,0.9l-0.2-0.2c-0.1-0.1-0.3-0.3-0.8-0.3c-0.5,0-0.6,0.2-0.6,0.4c0,0.3,0.2,0.4,0.8,0.8c1.1,0.5,1.4,1.1,1.4,1.6
c0,0.7-0.5,1.4-1.3,1.6V61z M47.9,60.6h0.2v-0.8l0.2,0c0.7-0.1,1.1-0.7,1.1-1.2c0-0.5-0.4-0.9-1.1-1.2c-0.6-0.3-1.1-0.5-1.1-1.1
c0-0.2,0.1-0.8,1-0.8c0.4,0,0.7,0.1,0.8,0.2l0-0.1c-0.3-0.1-0.5-0.2-0.9-0.2h-0.2v-0.8h-0.1v0.8l-0.2,0c-0.7,0.1-1.1,0.5-1.1,1.1
c0,0.7,0.4,0.9,1.1,1.2c0.7,0.3,1.1,0.5,1.1,1.1c0,0.6-0.4,1-1.1,1c-0.4,0-0.7-0.1-1-0.2l0,0.1c0.3,0.1,0.7,0.2,1,0.2h0.2V60.6z"
/>
</g>
</g>
</svg>
