<?xml version="1.0" encoding="utf-8"?>
<!-- Generator: Adobe Illustrator 19.1.0, SVG Export Plug-In . SVG Version: 6.00 Build 0)  -->
<svg version="1.1" id="Layer_1" xmlns="http://www.w3.org/2000/svg" xmlns:xlink="http://www.w3.org/1999/xlink" x="0px" y="0px"
	 viewBox="-361 273 68 68" style="enable-background:new -361 273 68 68;" xml:space="preserve">
<style type="text/css">
	.st0{fill:none;stroke:#FFFFFF;stroke-width:2;stroke-miterlimit:10;}
	.st1{fill:#FFFFFF;}
</style>
<path class="st0" d="M-302.8,323h-1.6v-9.6c-1.1-17.2-17.5-17.2-17.5-17.2H-333v-0.9c0-2.7-1.7-5-4.1-5.9v-6.1
	c0.7-0.4,1.3-1,1.7-1.7h4.2c1.2,0,2.3-1,2.3-2.3c0-1.2-1-2.3-2.3-2.3h-4c-0.8-1.6-2.4-2.7-4.3-2.7s-3.5,1.1-4.3,2.7h-3.6
	c-1.2,0-2.3,1-2.3,2.3c0,1.2,1,2.3,2.3,2.3h3.8c0.5,0.8,1.2,1.5,2,1.9v5.9c-2.3,0.9-3.9,3.2-3.9,5.8v0.9H-360v14.4h14.4v0.9
	c0,3.5,2.8,6.3,6.3,6.3c3.5,0,6.3-2.8,6.3-6.3v-0.9h11.1c2.6,0,3.3,2.8,3.3,2.8v9.6h-1.7c-1.2,0-2.3,1-2.3,2.3c0,1.2,1,2.3,2.3,2.3
	h17.5c1.2,0,2.3-1,2.3-2.3C-300.5,324.1-301.5,323-302.8,323z"/>
<g>
	<path class="st1" d="M-308.5,335.4c0,1.7-1.2,3.1-2.7,3.1c-1.5,0-2.7-1.4-2.7-3.1c0-1.7,2.5-4.9,2.5-4.9S-308.5,333.7-308.5,335.4z
		"/>
</g>
</svg>
