<?xml version="1.0" encoding="utf-8"?>
<!-- Generator: Adobe Illustrator 19.1.0, SVG Export Plug-In . SVG Version: 6.00 Build 0)  -->
<svg version="1.1" id="Layer_1" xmlns="http://www.w3.org/2000/svg" xmlns:xlink="http://www.w3.org/1999/xlink" x="0px" y="0px"
	 viewBox="-361 273 68 68" style="enable-background:new -361 273 68 68;" xml:space="preserve">
<style type="text/css">
	.st0{fill:none;stroke:#FFFFFF;stroke-width:2;stroke-linecap:round;stroke-miterlimit:10;}
	.st1{fill:#FFFFFF;}
</style>
<g>
	<path class="st0" d="M-359.9,301.8c0,0,32-35.7,65.8,0"/>
	<path class="st0" d="M-350,310.1c0,0,22.3-28.4,46,0"/>
	<path class="st0" d="M-339.6,317.2c0,0,13-15.9,26.8,0"/>
	<g>
		<path class="st1" d="M-327.1,320.9c1.4,0,2.6,1.2,2.6,2.6c0,1.4-1.2,2.6-2.6,2.6c-1.4,0-2.6-1.2-2.6-2.6
			C-329.7,322.1-328.6,320.9-327.1,320.9 M-327.1,318.9c-2.6,0-4.6,2.1-4.6,4.6s2.1,4.6,4.6,4.6s4.6-2.1,4.6-4.6
			S-324.6,318.9-327.1,318.9L-327.1,318.9z"/>
	</g>
</g>
</svg>
