<?xml version="1.0" encoding="utf-8"?>
<!-- Generator: Adobe Illustrator 16.0.0, SVG Export Plug-In . SVG Version: 6.00 Build 0)  -->
<!DOCTYPE svg PUBLIC "-//W3C//DTD SVG 1.1//EN" "http://www.w3.org/Graphics/SVG/1.1/DTD/svg11.dtd">
<svg version="1.1" id="Layer_1" xmlns="http://www.w3.org/2000/svg" xmlns:xlink="http://www.w3.org/1999/xlink" x="0px" y="0px"
	 width="199.673px" height="145.059px" viewBox="-367.681 56.961 199.673 145.059"
	 enable-background="new -367.681 56.961 199.673 145.059" xml:space="preserve">
<g>
	
		<image overflow="visible" opacity="0.6" width="882" height="197" xlink:href="8D7CBB83E7E9473E.png"  transform="matrix(0.24 0 0 0.24 -373.6807 159.6626)">
	</image>
	<g>
		<polygon fill="#F6AB63" points="-367.681,162.663 -367.681,197.741 -357.98,197.741 -225.809,164.836 -179.083,197.726 
			-179.083,197.741 -168.008,197.741 -168.008,162.688 		"/>
	</g>
</g>
<polygon fill="#F6AB63" points="-367.681,107.674 -367.681,200.502 -357.98,200.502 -225.809,167.598 -179.083,200.488 
	-179.083,200.502 -168.008,200.502 -168.008,107.7 "/>
<g>
	<g>
		<g opacity="0.7">
			<path fill="#F8983A" d="M-211.247,120.812c-1.476-2.882-3.62-5.125-6.345-6.687c-3.364-1.916-7.083-2.611-11.015-2.072
				c-2.399,0.341-4.627,1.178-6.629,2.513c-2.64,1.746-4.642,4.088-5.934,6.956c-0.994,2.199-1.462,4.627-1.377,7.211
				c0.071,2.072,0.554,4.045,1.434,5.861c0.767,1.548,1.505,2.91,2.257,4.146c1.008,1.646,2.044,3.264,3.08,4.868l1.064,1.661
				c1.917,2.98,3.421,5.791,4.628,8.572c1.263,2.926,2.214,6.033,2.839,9.256c0.085,0.439,0.185,0.881,0.27,1.32l0.312,1.234h1.434
				l0.255-1.264c0.1-0.497,0.199-0.993,0.284-1.49c0.724-3.861,1.987-7.65,3.776-11.285c1.192-2.398,2.626-4.867,4.684-8.006
				c2.016-3.08,3.677-5.663,5.068-8.572c1.221-2.557,1.76-5.039,1.646-7.596C-209.628,125.07-210.209,122.84-211.247,120.812z
				 M-221.183,135.206c-1.533,1.434-3.166,2.157-4.854,2.157c-1.888,0-3.577-0.737-5.025-2.187
				c-1.448-1.436-2.172-3.407-2.172-5.836c0-2.241,0.738-4.114,2.186-5.563c1.448-1.448,3.137-2.171,5.011-2.171
				s3.563,0.738,5.011,2.171c1.448,1.449,2.186,3.322,2.186,5.563C-218.841,131.799-219.622,133.756-221.183,135.206z"/>
		</g>
		<path opacity="0.6" fill="#F8983A" enable-background="new    " d="M-227.912,56.961c-31.925,0-56,23.961-56,55.729
			c0,24.841,14.848,45.623,37.844,52.946l0.554-1.717c-20.384-6.614-31.059-30.774-31.059-51.229
			c0-27.821,20.923-48.788,48.661-48.788c27.737,0,48.66,20.98,48.66,48.788c0,20.455-10.675,44.615-31.059,51.229l0.554,1.717
			c22.996-7.323,37.844-28.104,37.844-52.946C-171.912,80.922-195.987,56.961-227.912,56.961z"/>
	</g>
</g>
<path fill="#F6AB63" d="M-367.681,107.471"/>
</svg>
