<?xml version="1.0" encoding="UTF-8" standalone="no"?>
<!-- Generator: Adobe Illustrator 16.0.0, SVG Export Plug-In . SVG Version: 6.00 Build 0)  -->

<svg
   xmlns:dc="http://purl.org/dc/elements/1.1/"
   xmlns:cc="http://creativecommons.org/ns#"
   xmlns:rdf="http://www.w3.org/1999/02/22-rdf-syntax-ns#"
   xmlns:svg="http://www.w3.org/2000/svg"
   xmlns="http://www.w3.org/2000/svg"
   xmlns:sodipodi="http://sodipodi.sourceforge.net/DTD/sodipodi-0.dtd"
   xmlns:inkscape="http://www.inkscape.org/namespaces/inkscape"
   version="1.1"
   id="Layer_1"
   x="0px"
   y="0px"
   width="199.672px"
   height="143.54px"
   viewBox="-678.165 82.46 199.672 143.54"
   enable-background="new -678.165 82.46 199.672 143.54"
   xml:space="preserve"
   inkscape:version="0.91 r13725"
   sodipodi:docname="pin copy.svg"><metadata
     id="metadata3430"><rdf:RDF><cc:Work
         rdf:about=""><dc:format>image/svg+xml</dc:format><dc:type
           rdf:resource="http://purl.org/dc/dcmitype/StillImage" /></cc:Work></rdf:RDF></metadata><defs
     id="defs3428" /><sodipodi:namedview
     pagecolor="#ffffff"
     bordercolor="#666666"
     borderopacity="1"
     objecttolerance="10"
     gridtolerance="10"
     guidetolerance="10"
     inkscape:pageopacity="0"
     inkscape:pageshadow="2"
     inkscape:window-width="1509"
     inkscape:window-height="1029"
     id="namedview3426"
     showgrid="false"
     inkscape:zoom="4.423728"
     inkscape:cx="117.3712"
     inkscape:cy="60.443855"
     inkscape:window-x="0"
     inkscape:window-y="0"
     inkscape:window-maximized="0"
     inkscape:current-layer="Layer_1" /><polygon
     points="-678.165,133.172 -678.165,226 -668.465,226 -536.293,193.096 -489.567,225.986 -489.567,226   -478.492,226 -478.492,133.198 "
     id="polygon3412"
     fill="#F6AB63" /><g
     id="g3414"
     transform="matrix(0.50501168,0,0,0.50501168,-265.51027,94.39146)"><g
       id="g3416"><g
         id="g3418"
         style="opacity:0.7"><path
           d="m -521.731,146.31 c -1.476,-2.882 -3.62,-5.125 -6.345,-6.686 -3.364,-1.917 -7.083,-2.612 -11.015,-2.073 -2.399,0.341 -4.627,1.178 -6.629,2.513 -2.64,1.746 -4.642,4.088 -5.934,6.956 -0.994,2.2 -1.462,4.627 -1.377,7.211 0.071,2.072 0.554,4.045 1.434,5.862 0.767,1.547 1.505,2.909 2.257,4.146 1.008,1.646 2.044,3.264 3.08,4.868 l 1.064,1.661 c 1.917,2.98 3.421,5.791 4.628,8.573 1.263,2.925 2.214,6.033 2.839,9.255 0.085,0.44 0.185,0.881 0.27,1.32 l 0.312,1.235 1.434,0 0.255,-1.264 c 0.1,-0.497 0.199,-0.993 0.284,-1.49 0.724,-3.861 1.987,-7.651 3.776,-11.285 1.192,-2.399 2.626,-4.868 4.684,-8.006 2.016,-3.08 3.677,-5.663 5.068,-8.573 1.221,-2.556 1.76,-5.039 1.646,-7.595 -0.113,-2.37 -0.694,-4.599 -1.731,-6.628 z m -9.936,14.393 c -1.533,1.434 -3.166,2.158 -4.854,2.158 -1.888,0 -3.577,-0.738 -5.025,-2.187 -1.448,-1.435 -2.172,-3.407 -2.172,-5.835 0,-2.242 0.738,-4.115 2.186,-5.564 1.448,-1.448 3.137,-2.171 5.011,-2.171 1.874,0 3.563,0.738 5.011,2.171 1.448,1.449 2.186,3.322 2.186,5.564 -0.001,2.458 -0.782,4.416 -2.343,5.864 z"
           id="path3420"
           inkscape:connector-curvature="0"
           style="fill:#f8983a" /></g><path
         enable-background="new    "
         d="m -538.396,82.46 c -31.925,0 -56,23.961 -56,55.729 0,24.841 14.848,45.623 37.844,52.947 l 0.554,-1.717 c -20.384,-6.615 -31.059,-30.775 -31.059,-51.23 0,-27.822 20.923,-48.788 48.661,-48.788 27.737,0 48.66,20.98 48.66,48.788 0,20.455 -10.675,44.615 -31.059,51.23 l 0.554,1.717 c 22.996,-7.324 37.844,-28.105 37.844,-52.947 10e-4,-31.768 -24.074,-55.729 -55.999,-55.729 z"
         id="path3422"
         inkscape:connector-curvature="0"
         style="opacity:0.6;fill:#f8983a" /></g></g><path
     fill="#F6AB63"
     d="M-678.165,132.969"
     id="path3424" /></svg>