<?xml version="1.0" encoding="utf-8"?>
<!-- Generator: Adobe Illustrator 16.0.0, SVG Export Plug-In . SVG Version: 6.00 Build 0)  -->
<!DOCTYPE svg PUBLIC "-//W3C//DTD SVG 1.1//EN" "http://www.w3.org/Graphics/SVG/1.1/DTD/svg11.dtd">
<svg version="1.1" id="Layer_1" xmlns="http://www.w3.org/2000/svg" xmlns:xlink="http://www.w3.org/1999/xlink" x="0px" y="0px"
	 width="199.672px" height="143.54px" viewBox="-678.165 82.46 199.672 143.54"
	 enable-background="new -678.165 82.46 199.672 143.54" xml:space="preserve">
<polygon fill="#F6AB63" points="-678.165,133.172 -678.165,225.875 -668.476,226 -536.452,193.096 -489.777,225.986 -489.777,226 
	-478.715,226 -478.715,133.198 "/>
<g>
	<g>
		<g opacity="0.7">
			<path fill="#F8983A" d="M-521.731,146.31c-1.476-2.882-3.62-5.125-6.345-6.686c-3.364-1.917-7.083-2.612-11.015-2.073
				c-2.399,0.341-4.627,1.178-6.629,2.513c-2.64,1.746-4.642,4.088-5.934,6.956c-0.994,2.2-1.462,4.627-1.377,7.211
				c0.071,2.072,0.554,4.045,1.434,5.862c0.767,1.547,1.505,2.909,2.257,4.146c1.008,1.646,2.044,3.264,3.08,4.868l1.064,1.661
				c1.917,2.98,3.421,5.791,4.628,8.573c1.263,2.925,2.214,6.033,2.839,9.255c0.085,0.44,0.185,0.881,0.27,1.32l0.312,1.235h1.434
				l0.255-1.264c0.1-0.497,0.199-0.993,0.284-1.49c0.724-3.861,1.987-7.651,3.776-11.285c1.192-2.399,2.626-4.868,4.684-8.006
				c2.016-3.08,3.677-5.663,5.068-8.573c1.221-2.556,1.76-5.039,1.646-7.595C-520.113,150.568-520.694,148.339-521.731,146.31z
				 M-531.667,160.703c-1.533,1.434-3.166,2.158-4.854,2.158c-1.888,0-3.577-0.738-5.025-2.187
				c-1.448-1.435-2.172-3.407-2.172-5.835c0-2.242,0.738-4.115,2.186-5.564c1.448-1.448,3.137-2.171,5.011-2.171
				s3.563,0.738,5.011,2.171c1.448,1.449,2.186,3.322,2.186,5.564C-529.325,157.297-530.106,159.255-531.667,160.703z"/>
		</g>
		<path opacity="0.6" fill="#F8983A" enable-background="new    " d="M-538.396,82.46c-31.925,0-56,23.961-56,55.729
			c0,24.841,14.848,45.623,37.844,52.947l0.554-1.717c-20.384-6.615-31.059-30.775-31.059-51.23
			c0-27.822,20.923-48.788,48.661-48.788c27.737,0,48.66,20.98,48.66,48.788c0,20.455-10.675,44.615-31.059,51.23l0.554,1.717
			c22.996-7.324,37.844-28.105,37.844-52.947C-482.396,106.421-506.471,82.46-538.396,82.46z"/>
	</g>
</g>
<path fill="#F6AB63" d="M-678.165,132.969"/>
</svg>
