<?xml version="1.0" encoding="utf-8"?>
<!-- Generator: Adobe Illustrator 16.0.0, SVG Export Plug-In . SVG Version: 6.00 Build 0)  -->
<!DOCTYPE svg PUBLIC "-//W3C//DTD SVG 1.1//EN" "http://www.w3.org/Graphics/SVG/1.1/DTD/svg11.dtd">
<svg version="1.1" id="Layer_1" xmlns="http://www.w3.org/2000/svg" xmlns:xlink="http://www.w3.org/1999/xlink" x="0px" y="0px"
	 width="40px" height="40px" viewBox="180.118 130 40 40" enable-background="new 180.118 130 40 40" xml:space="preserve">
<g>
	<g id="XMLID_1_">
		<g>
			<path fill="transparent" class="hover-fill" stroke="#FFFFFF" d="M212.59,131.18c3.351,0,6.061,2.54,6.33,5.82l-18.98,16.41l-18.63-16.39c0.26-3.29,2.98-5.84,6.34-5.84
				H212.59z"/>
			<path fill="#FFFFFF" d="M218.94,162.53v-25c0-0.18-0.011-0.36-0.021-0.53c-0.27-3.28-2.979-5.82-6.33-5.82h-24.94
				c-3.36,0-6.08,2.55-6.34,5.84c-0.01,0.17-0.02,0.34-0.02,0.51v24.94c0,3.53,2.83,6.351,6.36,6.351h24.94
				C216.12,168.82,218.94,166,218.94,162.53z M212.59,130c4.18,0,7.53,3.35,7.53,7.53v24.94c0,4.181-3.351,7.53-7.47,7.53h-25
				c-4.18,0-7.53-3.35-7.53-7.47v-25c0-4.18,3.35-7.53,7.53-7.53H212.59z"/>
		</g>
		<g>
		</g>
	</g>
</g>
</svg>
