<?xml version="1.0" encoding="utf-8"?>
<!-- Generator: Adobe Illustrator 19.1.0, SVG Export Plug-In . SVG Version: 6.00 Build 0)  -->
<svg version="1.1" id="Layer_1" xmlns="http://www.w3.org/2000/svg" xmlns:xlink="http://www.w3.org/1999/xlink" x="0px" y="0px"
	 viewBox="-361 273 68 68" style="enable-background:new -361 273 68 68;" xml:space="preserve">
<style type="text/css">
	.st0{fill:none;stroke:#FFFFFF;stroke-width:2;stroke-linecap:round;stroke-miterlimit:10;}
	.st1{fill:none;stroke:#FFFFFF;stroke-width:2;stroke-miterlimit:10;}
</style>
<path class="st0" d="M-299.9,284c0-4.4-3.6-8-8-8s-8,3.6-8,8v21.3"/>
<path class="st0" d="M-324.1,284c0-4.4-3.6-8-8-8c-4.4,0-8,3.6-8,8v21.3"/>
<line class="st1" x1="-340.1" y1="289.6" x2="-315.9" y2="289.6"/>
<line class="st1" x1="-340.1" y1="298.7" x2="-315.9" y2="298.7"/>
<path class="st0" d="M-294.6,304.7c-4.4,2.3-7.1,2.2-8.8,1.4c-0.9-0.4-1.2-0.9-2.1-1.4c-2.6-1.4-5.6-0.9-8.2,0
	c-4.4,2.3-7.1,2.2-8.8,1.4c-0.9-0.4-1.2-0.9-2.1-1.4c-2.6-1.4-5.6-0.9-8.2,0c-4.4,2.3-7.1,2.2-8.8,1.4c-0.9-0.4-1.2-0.9-2.1-1.4
	c-2.6-1.4-5.6-0.9-8.2,0c-3.2,1.7-5.5,2.1-7.2,1.9"/>
<path class="st0" d="M-294.6,315.1c-4.4,2.3-7.1,2.2-8.8,1.4c-0.9-0.4-1.2-0.9-2.1-1.4c-2.6-1.4-5.6-0.9-8.2,0
	c-4.4,2.3-7.1,2.2-8.8,1.4c-0.9-0.4-1.2-0.9-2.1-1.4c-2.6-1.4-5.6-0.9-8.2,0c-4.4,2.3-7.1,2.2-8.8,1.4c-0.9-0.4-1.2-0.9-2.1-1.4
	c-2.6-1.4-5.6-0.9-8.2,0c-3.2,1.7-5.5,2.1-7.2,1.9"/>
<path class="st0" d="M-294.6,325.6c-4.4,2.3-7.1,2.2-8.8,1.4c-0.9-0.4-1.2-0.9-2.1-1.4c-2.6-1.4-5.6-0.9-8.2,0
	c-4.4,2.3-7.1,2.2-8.8,1.4c-0.9-0.4-1.2-0.9-2.1-1.4c-2.6-1.4-5.6-0.9-8.2,0c-4.4,2.3-7.1,2.2-8.8,1.4c-0.9-0.4-1.2-0.9-2.1-1.4
	c-2.6-1.4-5.6-0.9-8.2,0c-3.2,1.7-5.5,2.1-7.2,1.9"/>
</svg>
