<?xml version="1.0" encoding="utf-8"?>
<!-- Generator: Adobe Illustrator 19.1.0, SVG Export Plug-In . SVG Version: 6.00 Build 0)  -->
<svg version="1.1" id="Layer_1" xmlns="http://www.w3.org/2000/svg" xmlns:xlink="http://www.w3.org/1999/xlink" x="0px" y="0px"
	 viewBox="-361 273 68 68" style="enable-background:new -361 273 68 68;" xml:space="preserve">
<style type="text/css">
	.st0{fill:#FFFFFF;}
	.st1{fill:none;stroke:#FFFFFF;stroke-width:0.9102;stroke-linecap:square;stroke-miterlimit:10;}
</style>
<g>
	<g>
		<path class="st0" d="M-345.9,289.8l32.4,32.4l-1.9,1.9l-32.4-32.4L-345.9,289.8 M-345.9,287l-4.7,4.7l35.2,35.2l4.7-4.7
			L-345.9,287L-345.9,287z"/>
	</g>
	
		<rect x="-350.1" y="292" transform="matrix(0.7071 0.7071 -0.7071 0.7071 107.9366 329.0439)" class="st0" width="13.8" height="5.5"/>
	<g>
		<path class="st0" d="M-309.6,319.8l-0.6-0.8c0.1-0.1,2.1-1.5,0.9-3.4c-0.5-0.8-0.6-1.5-0.3-2.2c0.4-1.3,2-1.9,2.1-1.9l0.4,0.9
			c0,0-1.2,0.5-1.5,1.3c-0.1,0.4-0.1,0.8,0.3,1.3C-307.1,317.2-308.6,319.1-309.6,319.8z"/>
		<path class="st0" d="M-305.8,314.8l-0.6-0.8c0.1-0.1,2.1-1.5,0.9-3.4c-0.5-0.8-0.6-1.5-0.3-2.2c0.4-1.3,2-1.9,2.1-1.9l0.4,0.9
			c0,0-1.2,0.5-1.5,1.3c-0.1,0.4-0.1,0.8,0.3,1.3C-303.3,312.2-304.8,314.1-305.8,314.8z"/>
	</g>
	<path class="st1" d="M-311.4,322.2c1,1,0.8,2.7-0.3,3.8c-1.1,1.1-2.8,1.3-3.8,0.3"/>
</g>
</svg>
