<?xml version="1.0" encoding="utf-8"?>
<!-- Generator: Adobe Illustrator 16.0.0, SVG Export Plug-In . SVG Version: 6.00 Build 0)  -->
<!DOCTYPE svg PUBLIC "-//W3C//DTD SVG 1.1//EN" "http://www.w3.org/Graphics/SVG/1.1/DTD/svg11.dtd">
<svg version="1.1" id="Layer_1" xmlns="http://www.w3.org/2000/svg" xmlns:xlink="http://www.w3.org/1999/xlink" x="0px" y="0px"
	 width="40px" height="40px" viewBox="0 0 40 40" enable-background="new 0 0 40 40" xml:space="preserve">
<g>
	<path fill="#FFFFFF" d="M32.398,1.175c3.524,0,6.342,2.823,6.342,6.348v24.978c0,3.466-2.817,6.287-6.342,6.287H7.514
		c-3.522,0-6.339-2.821-6.339-6.349V7.522c0-3.526,2.817-6.348,6.339-6.348L32.398,1.175 M32.398,0H7.514C3.346,0,0,3.35,0,7.522
		V32.5c0,4.113,3.346,7.463,7.514,7.463h24.945c4.109,0,7.514-3.351,7.514-7.523V7.521C39.913,3.35,36.568,0,32.398,0L32.398,0z"/>
</g>
<path fill="none" stroke="#FFFFFF" class="hover-fill" stroke-linecap="round" stroke-linejoin="round" stroke-miterlimit="10" d="M25.648,7.329
	c1.758,0,3.283,0.762,4.396,1.994c1.35-0.294,2.641-0.822,3.812-1.525c-0.469,1.466-1.408,2.757-2.637,3.519
	c1.229-0.176,2.402-0.528,3.459-0.998c-0.822,1.291-1.818,2.406-2.992,3.283c0,0.295,0,0.529,0,0.822
	c0,8.442-6.096,18.116-17.178,18.116c-3.4,0-6.565-1.056-9.263-2.873c0.47,0.06,0.938,0.06,1.466,0.06
	c2.814,0,5.452-0.998,7.504-2.697c-2.638-0.059-4.865-1.877-5.628-4.455c0.353,0.059,0.763,0.117,1.114,0.117
	c0.527,0,1.057-0.06,1.583-0.234c-2.756-0.587-4.867-3.166-4.867-6.216v-0.058c0.821,0.469,1.759,0.762,2.757,0.762
	c-1.584-1.114-2.697-3.108-2.697-5.277c0-1.172,0.291-2.227,0.819-3.225c2.991,3.871,7.446,6.391,12.431,6.625
	c-0.119-0.469-0.176-0.938-0.176-1.467C19.611,10.202,22.309,7.329,25.648,7.329z"/>
</svg>
